<svg width="228" height="166" viewBox="0 0 228 166" fill="none" xmlns="http://www.w3.org/2000/svg">
<g clip-path="url(#clip0_234_938)">
<path d="M30.9642 165.421C30.9614 165.429 30.9614 165.44 30.9587 165.448H13.3202C12.9882 165.236 12.6616 165.015 12.3404 164.792C10.3573 163.43 8.52582 161.854 6.87821 160.092C4.98949 158.053 3.42909 155.725 2.25425 153.195C-0.072695 148.164 -0.788469 142.441 1.01321 137.27C1.01321 137.27 1.01327 137.269 1.0134 137.269C1.01354 137.269 1.01374 137.268 1.01399 137.268C1.01425 137.268 1.01455 137.268 1.01488 137.268C1.01522 137.267 1.01558 137.267 1.01593 137.267C1.05948 137.138 1.10847 137.005 1.15746 136.873C1.23094 137.003 1.3017 137.13 1.37791 137.256L1.38063 137.259C2.39189 138.983 3.53866 140.622 4.80981 142.16V142.163C4.9078 142.281 5.00577 142.4 5.10646 142.516C5.10646 142.516 5.10652 142.517 5.10666 142.517C5.10679 142.517 5.10699 142.518 5.10724 142.518C5.1075 142.518 5.1078 142.518 5.10813 142.518C5.10847 142.519 5.10883 142.519 5.10919 142.519C8.19573 146.175 11.9248 149.22 16.1071 151.498C16.1207 151.507 16.1316 151.512 16.1452 151.521C16.1591 151.529 16.1737 151.536 16.1887 151.543C16.1914 151.545 16.1942 151.545 16.1969 151.548C17.1249 152.056 18.0775 152.519 19.0464 152.938V152.941C19.8084 153.275 20.5841 153.578 21.3652 153.859C23.0308 154.452 24.827 154.993 26.4219 155.773C27.9732 156.532 29.3394 157.516 30.2293 158.997C30.2974 159.119 30.3654 159.237 30.428 159.359L29.9082 163.005L30.9451 162.999L30.8471 164.792L30.8199 165.31L30.9642 165.421Z" fill="#F0F0F0"/>
<path d="M26.6095 165.448H26.2366C26.2013 165.228 26.1659 165.01 26.1251 164.792C26.0194 164.196 25.8757 163.607 25.6951 163.03C25.6134 162.77 25.5209 162.517 25.4147 162.266C24.8133 160.837 23.7791 159.582 22.2496 159.163C21.8043 159.043 21.3466 158.978 20.886 158.967C19.9743 158.929 19.049 159.047 18.1427 159.097C17.9195 159.108 17.6936 159.116 17.4759 159.113H17.4705C16.2918 159.133 15.1229 158.894 14.044 158.413C12.7116 157.766 11.4983 156.893 10.457 155.831C9.77556 155.17 9.12789 154.474 8.51647 153.746V153.744C8.43482 153.653 8.35589 153.559 8.27698 153.462C6.83603 151.707 5.5766 149.807 4.51849 147.792C3.97903 146.773 3.49477 145.726 3.06788 144.653C3.06223 144.644 3.05766 144.634 3.05428 144.623C2.0992 142.259 1.41434 139.792 1.01309 137.27C1.01308 137.27 1.01315 137.27 1.01328 137.269C1.01342 137.269 1.01361 137.269 1.01387 137.268C1.01412 137.268 1.01443 137.268 1.01476 137.268C1.0151 137.268 1.01546 137.268 1.01582 137.268C0.994058 137.154 0.977725 137.039 0.961382 136.926C0.926001 136.691 1.29342 136.68 1.32608 136.915C1.34241 137.03 1.35873 137.141 1.37778 137.257L1.38051 137.259C1.76669 139.674 2.41472 142.038 3.31282 144.309V144.311C3.3591 144.427 3.40536 144.54 3.45163 144.653C4.72913 147.794 6.47799 150.715 8.63623 153.313L8.63895 153.319C8.66073 153.346 8.68523 153.371 8.70971 153.399C8.71074 153.4 8.71153 153.401 8.712 153.403C8.71247 153.404 8.71262 153.406 8.71244 153.407C8.71516 153.404 8.71516 153.407 8.71516 153.407C9.21865 154.011 9.74663 154.59 10.2964 155.153C11.313 156.241 12.4922 157.161 13.7909 157.878C14.8753 158.441 16.0752 158.737 17.2936 158.744C17.416 158.744 17.5385 158.747 17.661 158.744C17.759 158.744 17.8569 158.741 17.9549 158.736C18.8775 158.691 19.8137 158.573 20.7418 158.589C21.1639 158.598 21.5845 158.642 21.9992 158.722C22.6804 158.87 23.323 159.162 23.8849 159.579C24.4468 159.997 24.9153 160.53 25.2596 161.143C25.6058 161.736 25.8817 162.368 26.0815 163.027C26.1496 163.242 26.2067 163.46 26.2639 163.681V163.683C26.351 164.036 26.4272 164.395 26.4925 164.756C26.4956 164.768 26.4975 164.78 26.4979 164.792C26.5387 165.01 26.5741 165.231 26.6095 165.448Z" fill="white"/>
<path d="M8.65597 153.643C7.72309 154.348 6.57362 154.693 5.41284 154.617C4.25205 154.542 3.15554 154.05 2.31913 153.231C2.15046 153.065 2.39759 152.792 2.5665 152.958C3.34397 153.722 4.36542 154.18 5.44648 154.248C6.52754 154.316 7.597 153.99 8.46184 153.329C8.64995 153.186 8.843 153.501 8.65597 153.643Z" fill="white"/>
<path d="M17.2787 158.857C17.6439 156.476 17.1101 154.043 15.7838 152.044C15.6522 151.846 15.9624 151.649 16.0938 151.847C17.4702 153.931 18.0206 156.464 17.6352 158.94C17.5983 159.176 17.242 159.092 17.2787 158.857Z" fill="white"/>
<path d="M3.2144 144.361C3.63137 144.165 3.99372 143.866 4.26892 143.493C4.54411 143.12 4.72353 142.684 4.79107 142.223C4.82499 141.986 5.18127 142.071 5.14756 142.306C5.07061 142.815 4.87188 143.296 4.56873 143.709C4.26558 144.122 3.86725 144.454 3.40852 144.675C3.367 144.699 3.31783 144.707 3.27101 144.696C3.22419 144.685 3.18322 144.657 3.15644 144.616C3.13094 144.574 3.12273 144.524 3.13358 144.476C3.14444 144.429 3.17348 144.387 3.21441 144.361H3.2144Z" fill="white"/>
<path d="M33.6255 153.316L33.4758 154.714L31.0945 154.679L30.7352 157.199L30.6726 157.632V157.635L30.4277 159.359L29.9078 163.005L30.9448 162.999L30.8468 164.792L30.8196 165.311L30.9638 165.421L30.9965 165.448L31.0074 165.457C30.9774 165.517 30.9448 165.578 30.9121 165.642C30.9312 165.575 30.9448 165.515 30.9584 165.448H24.0673C23.9394 165.231 23.8142 165.013 23.6918 164.792C22.6284 162.917 21.6909 160.971 20.8858 158.967C20.8368 158.843 20.7851 158.719 20.7416 158.592V158.589C20.0257 156.757 19.4587 154.867 19.046 152.941V152.938C18.8224 151.883 18.6526 150.817 18.5371 149.745C18.2421 146.972 18.3789 144.17 18.9426 141.44C18.9472 141.427 18.9508 141.413 18.9535 141.399C20.0394 136.189 22.6875 131.374 26.8815 128.324C27.0556 128.191 27.2353 128.067 27.4176 127.946C27.4203 127.943 27.4203 127.943 27.4231 127.943C27.4234 127.943 27.4238 127.943 27.4241 127.943C27.4244 127.943 27.4247 127.942 27.425 127.942C27.4252 127.942 27.4254 127.942 27.4256 127.941C27.4257 127.941 27.4258 127.941 27.4258 127.94C27.5401 127.866 27.6517 127.791 27.766 127.717C27.7496 127.866 27.7306 128.015 27.717 128.164C27.4971 130.156 27.4388 132.163 27.5428 134.165V134.17C27.5455 134.325 27.5537 134.479 27.5646 134.637V134.642C27.8613 139.452 29.0341 144.165 31.0237 148.542C31.0271 148.554 31.0316 148.565 31.0373 148.575C31.0428 148.589 31.0482 148.6 31.0537 148.614C31.7979 150.242 32.6575 151.814 33.6255 153.316Z" fill="#F0F0F0"/>
<path d="M27.8797 127.853C27.8252 127.954 27.7684 128.059 27.717 128.163C27.3106 128.942 26.9365 129.738 26.5946 130.55C25.9838 131.985 25.4757 133.462 25.0742 134.97C25.0417 135.088 25.0096 135.208 24.9803 135.328C24.132 138.619 23.7926 142.024 23.9743 145.421C23.9745 145.454 23.9769 145.485 23.9797 145.518C24.023 146.311 24.0981 147.101 24.2049 147.888C24.3693 149.377 24.7639 150.831 25.3743 152.195C25.4598 152.374 25.5501 152.548 25.6449 152.716C25.8808 153.128 26.1547 153.516 26.4627 153.875C26.6849 154.138 26.9242 154.385 27.1792 154.615C27.3329 154.756 27.4915 154.894 27.6573 155.024C27.7529 155.1 27.8513 155.175 27.9497 155.25C28.0309 155.306 28.11 155.365 28.1912 155.421C29.0362 156.007 29.9475 156.528 30.7352 157.2L30.6733 157.633C29.9057 156.933 28.9791 156.403 28.127 155.824C27.593 155.466 27.0931 155.058 26.6337 154.607C26.5735 154.544 26.5105 154.482 26.4525 154.417C26.1415 154.092 25.8608 153.739 25.6137 153.363C25.4879 153.175 25.3693 152.98 25.2573 152.775C24.5808 151.446 24.1319 150.011 23.9298 148.529C23.7784 147.584 23.6741 146.632 23.6172 145.676C23.6072 145.552 23.6003 145.43 23.5957 145.305C23.4891 143.025 23.6124 140.74 23.9637 138.485C24.4072 135.626 25.2111 132.835 26.3557 130.183C26.6826 129.424 27.0391 128.676 27.4251 127.94C27.4743 127.839 27.5266 127.741 27.5811 127.639C27.6919 127.429 27.9905 127.643 27.8797 127.853Z" fill="white"/>
<path d="M23.7919 145.681C22.6287 145.674 21.5059 145.248 20.6239 144.48C19.742 143.711 19.1583 142.65 18.9771 141.486C18.9413 141.25 19.301 141.182 19.3369 141.418C19.5037 142.503 20.0475 143.491 20.8702 144.205C21.6929 144.919 22.7404 145.312 23.8235 145.312C24.0589 145.312 24.0259 145.681 23.7919 145.681V145.681Z" fill="white"/>
<path d="M27.5779 155.105C29.2841 153.427 30.3034 151.158 30.4325 148.752C30.4451 148.514 30.8096 148.546 30.797 148.784C30.6579 151.288 29.5924 153.646 27.8132 155.389C27.6435 155.555 27.4091 155.27 27.5779 155.105H27.5779Z" fill="white"/>
<path d="M24.961 134.95C25.4105 135.047 25.8769 135.031 26.3184 134.901C26.7598 134.77 27.1625 134.531 27.4902 134.205C27.6577 134.037 27.8919 134.321 27.7255 134.488C27.3618 134.848 26.9167 135.111 26.4293 135.256C25.9419 135.401 25.4269 135.422 24.9294 135.319C24.8816 135.313 24.8379 135.289 24.807 135.252C24.7761 135.215 24.7604 135.167 24.763 135.118C24.7674 135.069 24.7907 135.024 24.8278 134.993C24.8649 134.961 24.9128 134.946 24.961 134.95H24.961Z" fill="white"/>
<path d="M213.291 30.591H163.972C163.76 30.5913 163.551 30.5493 163.356 30.4675C163.16 30.3857 162.983 30.2657 162.833 30.1143C162.684 29.963 162.565 29.7832 162.484 29.5853C162.403 29.3874 162.361 29.1753 162.361 28.961C162.361 28.7468 162.403 28.5347 162.484 28.3368C162.565 28.1389 162.684 27.9591 162.833 27.8077C162.983 27.6563 163.16 27.5363 163.356 27.4545C163.551 27.3727 163.76 27.3308 163.972 27.3311H213.291C213.503 27.3308 213.712 27.3727 213.907 27.4545C214.103 27.5363 214.28 27.6563 214.43 27.8077C214.58 27.9591 214.698 28.1389 214.779 28.3368C214.86 28.5347 214.902 28.7468 214.902 28.961C214.902 29.1753 214.86 29.3874 214.779 29.5853C214.698 29.7832 214.58 29.963 214.43 30.1143C214.28 30.2657 214.103 30.3857 213.907 30.4675C213.712 30.5493 213.503 30.5913 213.291 30.591Z" fill="#3364FF"/>
<path d="M213.291 37.0316H163.972C163.545 37.031 163.137 36.8591 162.836 36.5534C162.534 36.2478 162.365 35.8335 162.365 35.4015C162.365 34.9696 162.534 34.5553 162.836 34.2497C163.137 33.944 163.545 33.772 163.972 33.7715H213.291C213.717 33.772 214.126 33.944 214.427 34.2497C214.728 34.5553 214.898 34.9696 214.898 35.4015C214.898 35.8335 214.728 36.2478 214.427 36.5534C214.126 36.8591 213.717 37.031 213.291 37.0316Z" fill="#3364FF"/>
<path d="M185.35 43.472H163.972C163.545 43.4715 163.137 43.2995 162.836 42.9938C162.534 42.6882 162.365 42.2739 162.365 41.842C162.365 41.41 162.534 40.9957 162.836 40.6901C163.137 40.3845 163.545 40.2125 163.972 40.2119H185.35C185.562 40.2116 185.771 40.2536 185.967 40.3354C186.162 40.4172 186.34 40.5372 186.489 40.6886C186.639 40.84 186.758 41.0198 186.838 41.2177C186.919 41.4156 186.961 41.6277 186.961 41.842C186.961 42.0562 186.919 42.2683 186.838 42.4663C186.758 42.6642 186.639 42.8439 186.489 42.9953C186.34 43.1467 186.162 43.2668 185.967 43.3485C185.771 43.4303 185.562 43.4723 185.35 43.472Z" fill="#3364FF"/>
<path d="M213.291 67.2199H163.972C163.545 67.2199 163.136 67.0482 162.834 66.7425C162.533 66.4368 162.363 66.0222 162.363 65.5899C162.363 65.1576 162.533 64.743 162.834 64.4374C163.136 64.1317 163.545 63.96 163.972 63.96H213.291C213.718 63.96 214.127 64.1317 214.429 64.4374C214.73 64.743 214.9 65.1576 214.9 65.5899C214.9 66.0222 214.73 66.4368 214.429 66.7425C214.127 67.0482 213.718 67.2199 213.291 67.2199Z" fill="#E6E6E6"/>
<path d="M213.291 73.6615H163.972C163.545 73.6615 163.136 73.4897 162.834 73.184C162.533 72.8783 162.363 72.4637 162.363 72.0314C162.363 71.5991 162.533 71.1845 162.834 70.8788C163.136 70.5731 163.545 70.4014 163.972 70.4014H213.291C213.718 70.4014 214.127 70.5731 214.429 70.8788C214.73 71.1845 214.9 71.5991 214.9 72.0314C214.9 72.4637 214.73 72.8783 214.429 73.184C214.127 73.4897 213.718 73.6615 213.291 73.6615Z" fill="#E6E6E6"/>
<path d="M185.351 80.1019H163.972C163.545 80.1019 163.136 79.9302 162.834 79.6245C162.533 79.3188 162.363 78.9042 162.363 78.4718C162.363 78.0395 162.533 77.6249 162.834 77.3192C163.136 77.0135 163.545 76.8418 163.972 76.8418H185.351C185.562 76.8415 185.771 76.8835 185.967 76.9653C186.162 77.0471 186.34 77.1671 186.489 77.3185C186.639 77.4699 186.758 77.6497 186.839 77.8476C186.92 78.0455 186.961 78.2576 186.961 78.4718C186.961 78.6861 186.92 78.8982 186.839 79.0961C186.758 79.294 186.639 79.4738 186.489 79.6252C186.34 79.7766 186.162 79.8966 185.967 79.9784C185.771 80.0602 185.562 80.1022 185.351 80.1019Z" fill="#E6E6E6"/>
<path d="M213.291 105.863H163.972C163.761 105.863 163.551 105.821 163.356 105.739C163.161 105.657 162.984 105.537 162.834 105.386C162.685 105.235 162.567 105.055 162.486 104.857C162.405 104.659 162.363 104.448 162.363 104.233C162.363 104.019 162.405 103.807 162.486 103.61C162.567 103.412 162.685 103.232 162.834 103.081C162.984 102.93 163.161 102.81 163.356 102.728C163.551 102.646 163.761 102.604 163.972 102.604H213.291C213.502 102.604 213.712 102.646 213.907 102.728C214.102 102.81 214.279 102.93 214.429 103.081C214.578 103.232 214.696 103.412 214.777 103.61C214.858 103.807 214.9 104.019 214.9 104.233C214.9 104.448 214.858 104.659 214.777 104.857C214.696 105.055 214.578 105.235 214.429 105.386C214.279 105.537 214.102 105.657 213.907 105.739C213.712 105.821 213.502 105.863 213.291 105.863Z" fill="#E6E6E6"/>
<path d="M213.291 112.305H163.972C163.545 112.304 163.137 112.132 162.836 111.827C162.534 111.521 162.365 111.107 162.365 110.675C162.365 110.243 162.534 109.829 162.836 109.523C163.137 109.217 163.545 109.045 163.972 109.045H213.291C213.717 109.045 214.126 109.217 214.427 109.523C214.728 109.829 214.898 110.243 214.898 110.675C214.898 111.107 214.728 111.521 214.427 111.827C214.126 112.132 213.717 112.304 213.291 112.305Z" fill="#E6E6E6"/>
<path d="M185.351 118.745H163.972C163.545 118.745 163.136 118.574 162.834 118.268C162.533 117.962 162.363 117.548 162.363 117.115C162.363 116.683 162.533 116.268 162.834 115.963C163.136 115.657 163.545 115.485 163.972 115.485H185.351C185.562 115.485 185.771 115.527 185.967 115.609C186.162 115.691 186.34 115.811 186.489 115.962C186.639 116.113 186.758 116.293 186.839 116.491C186.92 116.689 186.961 116.901 186.961 117.115C186.961 117.33 186.92 117.542 186.839 117.74C186.758 117.938 186.639 118.117 186.489 118.269C186.34 118.42 186.162 118.54 185.967 118.622C185.771 118.704 185.562 118.746 185.351 118.745Z" fill="#E6E6E6"/>
<path d="M144.296 84.9416H114.605C113.809 84.9407 113.046 84.62 112.484 84.0498C111.921 83.4796 111.604 82.7065 111.604 81.9002V62.1616C111.604 61.3552 111.921 60.5821 112.484 60.012C113.046 59.4418 113.809 59.121 114.605 59.1201H144.296C145.092 59.121 145.855 59.4418 146.417 60.012C146.98 60.5821 147.297 61.3552 147.298 62.1616V81.9002C147.297 82.7065 146.98 83.4796 146.417 84.0498C145.855 84.62 145.092 84.9407 144.296 84.9416Z" fill="#E6E6E6"/>
<path d="M142.21 61.5869H116.693C115.968 61.5876 115.273 61.8795 114.761 62.3986C114.248 62.9176 113.96 63.6215 113.959 64.3557V79.706C113.96 80.4404 114.248 81.1444 114.761 81.6637C115.273 82.183 115.968 82.4751 116.693 82.4762H132.964C136.14 82.473 139.185 81.1931 141.43 78.9175C143.676 76.6418 144.939 73.5563 144.942 70.338V64.3557C144.941 63.6216 144.653 62.9178 144.141 62.3987C143.629 61.8796 142.934 61.5877 142.21 61.5869Z" fill="white"/>
<path d="M134.999 66.7764L134.922 66.9157C135.601 65.2204 134.984 63.1315 133.773 61.8532C132.562 60.575 130.879 59.9906 129.221 59.7587C127.991 59.5866 126.713 59.5916 125.543 60.0483C123.849 60.7098 122.555 62.2409 121.474 63.8338C120.979 64.5623 120.493 65.3929 120.543 66.3035C120.588 67.1486 121.083 67.8657 121.489 68.5826C121.894 69.2995 122.232 70.189 121.942 70.9715C121.768 71.4378 121.402 71.7737 121.104 72.1551C120.807 72.5366 120.563 73.0522 120.706 73.5308C120.77 73.7139 120.88 73.8771 121.024 74.0045C121.169 74.1319 121.344 74.219 121.531 74.2575C121.895 74.319 122.267 74.3101 122.628 74.2312L132.076 72.7846C132.718 72.6863 133.327 72.4322 133.851 72.0438C134.375 71.6554 134.799 71.1443 135.086 70.5542C135.373 69.964 135.515 69.3122 135.5 68.6544C135.485 67.9966 135.313 67.3523 134.999 66.7764Z" fill="#2F2E41"/>
<path d="M127.971 72.7177C130.522 72.7177 132.59 70.6219 132.59 68.0366C132.59 65.4513 130.522 63.3555 127.971 63.3555C125.42 63.3555 123.352 65.4513 123.352 68.0366C123.352 70.6219 125.42 72.7177 127.971 72.7177Z" fill="#FFB9B9"/>
<path d="M140.025 80.1369C137.978 81.6596 135.504 82.4792 132.964 82.4761H118.789C118.761 82.4527 118.734 82.4293 118.705 82.4045L120.027 78.6664C120.326 78.0025 120.797 77.4335 121.391 77.0204C121.984 76.6074 122.678 76.3658 123.397 76.3217L124.238 76.2694L126.243 74.5167C126.243 74.5167 131.646 74.3212 131.566 74.2275L134.839 76.2226L134.836 76.2088L136.123 76.2887C136.842 76.3326 137.535 76.5741 138.129 76.9871C138.723 77.4002 139.194 77.9693 139.493 78.6334L140.025 80.1369Z" fill="#3364FF"/>
<path d="M132.352 63.6921C132.233 63.0529 131.589 62.7605 131.038 62.6188C129.439 62.2054 127.776 62.1129 126.142 62.3464C124.951 62.5185 123.731 62.8981 122.867 63.8402C122.17 64.6335 121.775 65.6527 121.753 66.7146C121.718 67.3495 121.858 67.9819 122.158 68.5407C122.292 68.8008 122.49 69.0212 122.733 69.1802C122.977 69.3392 123.257 69.4313 123.546 69.4475L123.601 69.6428C125.921 69.3154 128.075 67.853 129.432 65.6853C129.177 66.6067 128.671 67.4363 127.97 68.0782C129.536 67.4433 130.897 66.3803 131.902 65.0077C132.176 64.6386 132.443 64.1784 132.352 63.6921Z" fill="#2F2E41"/>
<path d="M144.296 48.3127H114.605C113.809 48.3118 113.046 47.9911 112.484 47.4209C111.921 46.8507 111.604 46.0776 111.604 45.2713V25.5327C111.604 24.7263 111.921 23.9532 112.484 23.383C113.046 22.8129 113.809 22.4921 114.605 22.4912H144.296C145.092 22.4921 145.855 22.8129 146.417 23.383C146.98 23.9532 147.297 24.7263 147.298 25.5327V45.2713C147.297 46.0776 146.98 46.8507 146.417 47.4209C145.855 47.9911 145.092 48.3118 144.296 48.3127Z" fill="#CCCCCC"/>
<path d="M142.21 24.957H116.693C115.968 24.9579 115.274 25.2499 114.761 25.7689C114.249 26.2879 113.96 26.9916 113.959 27.7258V43.0761C113.96 43.8105 114.248 44.5145 114.761 45.0338C115.273 45.5531 115.968 45.8453 116.693 45.8463H132.964C136.14 45.8437 139.185 44.564 141.431 42.2882C143.677 40.0124 144.939 36.9266 144.942 33.7082V27.7258C144.941 26.9917 144.653 26.2879 144.141 25.7688C143.629 25.2498 142.934 24.9578 142.21 24.957Z" fill="white"/>
<path d="M123.318 27.9356C124.519 27.9356 125.494 26.9483 125.494 25.7305C125.494 24.5127 124.519 23.5254 123.318 23.5254C122.116 23.5254 121.142 24.5127 121.142 25.7305C121.142 26.9483 122.116 27.9356 123.318 27.9356Z" fill="#2F2E41"/>
<path d="M126.8 36.3151C129.844 36.3151 132.312 33.8141 132.312 30.7288C132.312 27.6436 129.844 25.1426 126.8 25.1426C123.755 25.1426 121.287 27.6436 121.287 30.7288C121.287 33.8141 123.755 36.3151 126.8 36.3151Z" fill="#2F2E41"/>
<path d="M127.256 36.3133C129.73 36.3133 131.736 34.2809 131.736 31.7738C131.736 29.2668 129.73 27.2344 127.256 27.2344C124.782 27.2344 122.776 29.2668 122.776 31.7738C122.776 34.2809 124.782 36.3133 127.256 36.3133Z" fill="#9E616A"/>
<path d="M130.297 27.1467C129.512 26.6618 128.613 26.3995 127.694 26.3872C126.775 26.3749 125.869 26.6131 125.072 27.0769C124.274 27.5407 123.615 28.2131 123.162 29.0237C122.709 29.8343 122.479 30.7533 122.496 31.6848C124.779 32.2655 127.177 32.71 129.611 31.8237L130.186 30.398L130.525 31.8247C131.266 32.1318 132.009 32.3916 132.752 31.8218C132.783 30.893 132.572 29.9723 132.141 29.1519C131.71 28.3315 131.075 27.6401 130.297 27.1467Z" fill="#2F2E41"/>
<path d="M121.292 19.7439C120.528 19.4135 119.688 19.3063 118.867 19.4344C118.046 19.5626 117.277 19.921 116.646 20.4691C116.03 21.0329 115.56 21.7424 115.28 22.5346C115 23.3267 114.917 24.1768 115.039 25.0092C115.286 26.7021 116.302 28.1599 117.238 29.5841C118.174 31.0084 119.089 32.569 119.088 34.2803C119.087 35.5128 118.604 36.6948 117.744 37.5669C116.885 38.4391 115.719 38.9302 114.503 38.9326C115.93 39.5554 117.42 40.1904 118.973 40.1165C120.525 40.0427 122.153 39.0314 122.406 37.4775C122.588 36.3578 122.046 35.266 121.594 34.2278C120.858 32.5361 120.325 30.7605 120.009 28.9395C119.858 28.0704 119.759 27.1567 120.039 26.321C120.262 25.7017 120.675 25.1712 121.218 24.8079C121.76 24.4446 122.404 24.2677 123.053 24.3032L123.566 23.8355C123.654 22.9985 123.482 22.1545 123.075 21.4211C122.667 20.6878 122.044 20.1015 121.292 19.7439Z" fill="#2F2E41"/>
<path d="M139.105 44.1254C137.251 45.2546 135.128 45.8496 132.964 45.8465H117.608L117.584 45.8258L118.906 42.0864C119.205 41.4226 119.676 40.8538 120.27 40.441C120.863 40.0281 121.557 39.7868 122.275 39.743L123.116 39.6907L125.122 37.938C125.122 37.938 130.525 37.7411 130.445 37.6475L133.718 39.6425L133.715 39.6301L135.002 39.71C135.721 39.7533 136.414 39.9944 137.008 40.4073C137.602 40.8202 138.073 41.3893 138.372 42.0533L139.105 44.1254Z" fill="#3364FF"/>
<path d="M144.296 123.585H114.605C113.809 123.584 113.046 123.264 112.484 122.693C111.921 122.123 111.604 121.35 111.604 120.544V100.805C111.604 99.9988 111.921 99.2257 112.484 98.6555C113.046 98.0853 113.809 97.7646 114.605 97.7637H144.296C145.092 97.7646 145.855 98.0853 146.417 98.6555C146.98 99.2257 147.297 99.9988 147.298 100.805V120.544C147.297 121.35 146.98 122.123 146.417 122.693C145.855 123.264 145.092 123.584 144.296 123.585Z" fill="#E6E6E6"/>
<path d="M142.21 100.23H116.693C115.968 100.231 115.273 100.523 114.761 101.042C114.248 101.561 113.96 102.265 113.959 102.999V118.35C113.96 119.084 114.248 119.788 114.761 120.307C115.273 120.827 115.968 121.119 116.693 121.12H132.964C136.14 121.117 139.185 119.837 141.43 117.561C143.676 115.285 144.939 112.2 144.942 108.982V102.999C144.941 102.265 144.653 101.561 144.141 101.042C143.629 100.523 142.934 100.231 142.21 100.23Z" fill="white"/>
<path d="M129.428 109.996C132.823 109.996 135.574 107.207 135.574 103.767C135.574 100.328 132.823 97.5391 129.428 97.5391C126.034 97.5391 123.282 100.328 123.282 103.767C123.282 107.207 126.034 109.996 129.428 109.996Z" fill="#2F2E41"/>
<path d="M129.431 110.813C132.463 110.813 134.922 108.322 134.922 105.25C134.922 102.177 132.463 99.6855 129.431 99.6855C126.399 99.6855 123.94 102.177 123.94 105.25C123.94 108.322 126.399 110.813 129.431 110.813Z" fill="#FFB8B8"/>
<path d="M140.414 118.48C138.298 120.192 135.671 121.122 132.964 121.12H119.271L120.57 117.448C120.869 116.784 121.341 116.215 121.934 115.802C122.528 115.389 123.221 115.147 123.94 115.103L124.781 115.051L126.786 113.298C126.786 113.298 132.19 113.102 132.11 113.009L135.383 115.004L135.38 114.99L136.667 115.07C137.385 115.114 138.079 115.355 138.672 115.768C139.266 116.181 139.737 116.751 140.036 117.415L140.414 118.48Z" fill="#3364FF"/>
<path d="M135.224 103.298C135.262 102.883 135.28 102.466 135.277 102.048C135.299 101.223 135.15 100.402 134.839 99.6396C134.456 98.7949 133.774 98.127 132.928 97.7686C132.089 97.4258 131.151 97.4266 130.313 97.7709C129.576 97.2566 128.721 96.9413 127.83 96.8547C127.384 96.8184 126.935 96.8921 126.523 97.0694C126.111 97.2467 125.747 97.5223 125.463 97.8729C125.341 98.0663 125.202 98.2485 125.049 98.4174C124.61 98.8291 123.944 98.7697 123.361 98.6855C123.622 98.9127 123.884 99.1398 124.145 99.3669C123.829 99.4507 123.512 99.5345 123.196 99.6183C123.565 99.8454 123.934 100.072 124.304 100.299C123.231 100.952 122.744 102.376 122.873 103.669C122.995 104.893 123.578 106.012 124.275 107.007C124.553 106.413 124.493 105.701 124.489 105.031C124.486 104.814 124.499 104.597 124.528 104.381C126.884 104.954 129.346 105.321 131.843 104.412L132.344 103.169C132.414 103.176 132.485 103.183 132.555 103.191L132.845 104.413C133.503 104.686 134.163 104.924 134.823 104.673C134.855 104.862 134.874 105.055 134.889 105.24C134.946 105.019 134.995 104.795 135.039 104.571C135.126 104.524 135.21 104.47 135.289 104.41C135.305 104.038 135.283 103.665 135.224 103.298Z" fill="#2F2E41"/>
<path d="M227.283 5.72965H99.2212C99.031 5.72944 98.8487 5.65279 98.7142 5.51652C98.5798 5.38024 98.5041 5.19548 98.5039 5.00275V0.726906C98.5041 0.534184 98.5798 0.349414 98.7142 0.213138C98.8487 0.0768631 99.031 0.000210973 99.2212 0H227.283C227.473 0.000210244 227.656 0.0768629 227.79 0.213138C227.925 0.349414 228 0.534183 228 0.726906V5.00275C228 5.19548 227.925 5.38024 227.79 5.51652C227.656 5.65279 227.473 5.72944 227.283 5.72965Z" fill="#E4E4E4"/>
<path d="M102.666 3.68807C103.228 3.68807 103.684 3.22602 103.684 2.65605C103.684 2.08608 103.228 1.62402 102.666 1.62402C102.103 1.62402 101.647 2.08608 101.647 2.65605C101.647 3.22602 102.103 3.68807 102.666 3.68807Z" fill="white"/>
<path d="M106.532 3.68807C107.095 3.68807 107.551 3.22602 107.551 2.65605C107.551 2.08608 107.095 1.62402 106.532 1.62402C105.97 1.62402 105.514 2.08608 105.514 2.65605C105.514 3.22602 105.97 3.68807 106.532 3.68807Z" fill="white"/>
<path d="M110.397 3.68807C110.96 3.68807 111.416 3.22602 111.416 2.65605C111.416 2.08608 110.96 1.62402 110.397 1.62402C109.835 1.62402 109.379 2.08608 109.379 2.65605C109.379 3.22602 109.835 3.68807 110.397 3.68807Z" fill="white"/>
<path d="M223.495 1.94562H219.044C218.956 1.94562 218.872 1.91041 218.81 1.84775C218.749 1.78508 218.714 1.7001 218.714 1.61148C218.714 1.52286 218.749 1.43787 218.81 1.37521C218.872 1.31255 218.956 1.27734 219.044 1.27734H223.495C223.582 1.27734 223.666 1.31255 223.728 1.37521C223.79 1.43787 223.825 1.52286 223.825 1.61148C223.825 1.7001 223.79 1.78508 223.728 1.84775C223.666 1.91041 223.582 1.94562 223.495 1.94562Z" fill="white"/>
<path d="M223.495 3.19854H219.044C219 3.19854 218.957 3.1899 218.917 3.17311C218.877 3.15631 218.841 3.1317 218.81 3.10068C218.78 3.06965 218.756 3.03281 218.739 2.99227C218.722 2.95174 218.714 2.90828 218.714 2.8644C218.714 2.82053 218.722 2.77708 218.739 2.73654C218.756 2.696 218.78 2.65917 218.81 2.62814C218.841 2.59711 218.877 2.5725 218.917 2.55571C218.957 2.53892 219 2.53027 219.044 2.53027H223.495C223.538 2.53027 223.581 2.53892 223.621 2.55571C223.661 2.5725 223.697 2.59711 223.728 2.62814C223.759 2.65917 223.783 2.696 223.8 2.73654C223.816 2.77708 223.825 2.82053 223.825 2.8644C223.825 2.90828 223.816 2.95174 223.8 2.99227C223.783 3.03281 223.759 3.06965 223.728 3.10068C223.697 3.1317 223.661 3.15631 223.621 3.17311C223.581 3.1899 223.538 3.19854 223.495 3.19854Z" fill="white"/>
<path d="M223.495 4.45147H219.044C218.956 4.45147 218.872 4.41627 218.81 4.35361C218.749 4.29095 218.714 4.20596 218.714 4.11734C218.714 4.02872 218.749 3.94373 218.81 3.88107C218.872 3.81841 218.956 3.7832 219.044 3.7832H223.495C223.582 3.7832 223.666 3.81841 223.728 3.88107C223.79 3.94373 223.825 4.02872 223.825 4.11734C223.825 4.20596 223.79 4.29095 223.728 4.35361C223.666 4.41627 223.582 4.45147 223.495 4.45147Z" fill="white"/>
<path d="M201.14 43.9164C202.157 43.9164 202.981 43.0808 202.981 42.05C202.981 41.0192 202.157 40.1836 201.14 40.1836C200.122 40.1836 199.298 41.0192 199.298 42.05C199.298 43.0808 200.122 43.9164 201.14 43.9164Z" fill="#3364FF"/>
<path d="M207.121 43.9164C208.138 43.9164 208.963 43.0808 208.963 42.05C208.963 41.0192 208.138 40.1836 207.121 40.1836C206.104 40.1836 205.279 41.0192 205.279 42.05C205.279 43.0808 206.104 43.9164 207.121 43.9164Z" fill="#3364FF"/>
<path d="M213.102 43.9164C214.119 43.9164 214.943 43.0808 214.943 42.05C214.943 41.0192 214.119 40.1836 213.102 40.1836C212.084 40.1836 211.26 41.0192 211.26 42.05C211.26 43.0808 212.084 43.9164 213.102 43.9164Z" fill="#3364FF"/>
<path d="M201.14 80.2816C202.157 80.2816 202.981 79.446 202.981 78.4152C202.981 77.3844 202.157 76.5488 201.14 76.5488C200.122 76.5488 199.298 77.3844 199.298 78.4152C199.298 79.446 200.122 80.2816 201.14 80.2816Z" fill="#E6E6E6"/>
<path d="M207.121 80.2816C208.138 80.2816 208.963 79.446 208.963 78.4152C208.963 77.3844 208.138 76.5488 207.121 76.5488C206.104 76.5488 205.279 77.3844 205.279 78.4152C205.279 79.446 206.104 80.2816 207.121 80.2816Z" fill="#E6E6E6"/>
<path d="M213.102 80.2816C214.119 80.2816 214.943 79.446 214.943 78.4152C214.943 77.3844 214.119 76.5488 213.102 76.5488C212.084 76.5488 211.26 77.3844 211.26 78.4152C211.26 79.446 212.084 80.2816 213.102 80.2816Z" fill="#E6E6E6"/>
<path d="M201.14 118.994C202.157 118.994 202.981 118.158 202.981 117.127C202.981 116.096 202.157 115.261 201.14 115.261C200.122 115.261 199.298 116.096 199.298 117.127C199.298 118.158 200.122 118.994 201.14 118.994Z" fill="#E6E6E6"/>
<path d="M207.121 118.994C208.138 118.994 208.963 118.158 208.963 117.127C208.963 116.096 208.138 115.261 207.121 115.261C206.104 115.261 205.279 116.096 205.279 117.127C205.279 118.158 206.104 118.994 207.121 118.994Z" fill="#E6E6E6"/>
<path d="M213.102 118.994C214.119 118.994 214.943 118.158 214.943 117.127C214.943 116.096 214.119 115.261 213.102 115.261C212.084 115.261 211.26 116.096 211.26 117.127C211.26 118.158 212.084 118.994 213.102 118.994Z" fill="#E6E6E6"/>
<path d="M148.717 43.6596L139.224 37.5685C139.042 37.4522 138.834 37.3875 138.619 37.3813C138.405 37.3752 138.192 37.4277 138.005 37.5334C137.817 37.6391 137.662 37.7941 137.554 37.982C137.446 38.1699 137.39 38.3838 137.392 38.6013L137.485 49.1039C137.487 49.383 137.585 49.6527 137.761 49.8672C137.938 50.0817 138.182 50.2277 138.452 50.2806C138.723 50.3335 139.003 50.2899 139.246 50.1572C139.488 50.0246 139.678 49.8111 139.782 49.5529L141.018 46.5082L144.461 53.3887C144.625 53.7142 144.909 53.9607 145.252 54.074C145.595 54.1872 145.968 54.158 146.29 53.9927C146.611 53.8275 146.855 53.5396 146.967 53.1925C147.079 52.8453 147.051 52.4671 146.889 52.1411L143.366 45.1042L147.88 45.8742C148.152 45.9206 148.432 45.8702 148.671 45.7316C148.91 45.593 149.095 45.3747 149.193 45.1139C149.292 44.8531 149.298 44.5657 149.211 44.3006C149.125 44.0355 148.95 43.809 148.717 43.6596Z" fill="#3F3D56"/>
<path d="M28.5156 109.052C28.7462 108.798 28.919 108.496 29.0218 108.166C29.1247 107.837 29.155 107.489 29.1106 107.146C29.0663 106.804 28.9484 106.475 28.7653 106.184C28.5822 105.893 28.3382 105.646 28.0507 105.46L29.9613 97.291L25.9175 98.7882L24.7231 106.316C24.4477 106.827 24.3666 107.421 24.4951 107.988C24.6235 108.555 24.9527 109.054 25.4202 109.391C25.8877 109.729 26.461 109.88 27.0315 109.818C27.602 109.755 28.13 109.483 28.5156 109.052Z" fill="#FFB8B8"/>
<path d="M38.2404 74.8188L36.6175 79.0477C36.6175 79.0477 37.313 83.2767 36.1538 84.2165C34.9946 85.1563 35.4582 85.1563 35.4582 85.8611C35.4183 86.3667 35.2738 86.8581 35.0342 87.3033C34.7945 87.7486 34.465 88.1377 34.0672 88.4455C33.1398 89.1503 28.9666 103.482 28.9666 103.482H24.7934C24.9282 102.39 24.9282 101.285 24.7934 100.193C24.5616 98.548 25.489 94.3191 25.9527 93.6142C26.4163 92.9094 25.9527 91.9696 25.9527 90.56C25.9527 89.1503 26.88 88.4455 26.88 86.096C26.88 83.7466 29.6621 65.421 29.4303 63.3065C29.1985 61.192 31.7487 59.3125 31.7487 59.3125H34.0672L38.2404 74.8188Z" fill="#3364FF"/>
<path d="M29.7718 160.507H32.7756L34.2052 148.766H29.7715L29.7718 160.507Z" fill="#FFB6B6"/>
<path d="M28.7907 158.423L33.5899 158.133V160.216L38.1527 163.41C38.378 163.567 38.5478 163.794 38.6371 164.056C38.7264 164.319 38.7306 164.603 38.6491 164.868C38.5676 165.133 38.4046 165.365 38.184 165.529C37.9634 165.694 37.6967 165.782 37.4228 165.782H31.7092L30.7244 163.721L30.3398 165.782H28.1855L28.7907 158.423Z" fill="#2F2E41"/>
<path d="M46.6448 160.507H49.6486L51.0782 148.766H46.6445L46.6448 160.507Z" fill="#FFB6B6"/>
<path d="M45.6647 158.423L50.4639 158.133V160.216L55.0267 163.41C55.2521 163.567 55.4218 163.794 55.5111 164.056C55.6004 164.319 55.6046 164.603 55.5231 164.868C55.4416 165.133 55.2787 165.365 55.0581 165.529C54.8374 165.694 54.5707 165.782 54.2969 165.782H48.5832L47.5984 163.721L47.2139 165.782H45.0596L45.6647 158.423Z" fill="#2F2E41"/>
<path d="M28.4755 150.382H28.5082L30.1745 131.291C29.8007 130.56 29.6109 129.747 29.6222 128.924C29.6335 128.1 29.8454 127.293 30.2392 126.573L30.3219 126.421L30.1074 125.414C29.832 124.12 29.9584 122.771 30.4693 121.552L29.9196 103.743C27.9941 91.0976 37.1704 82.8506 37.1704 82.8506H50.9166L53.8678 93.1256C54.9758 104.065 58.4409 115.572 57.9819 126.177C57.6327 134.245 53.7064 141.485 52.3688 149.342L52.4532 149.385C52.7571 149.492 52.8875 149.918 52.7444 150.338C52.6014 150.758 52.239 151.013 51.9351 150.906L44.6756 150.651C44.3717 150.544 44.2413 150.118 44.3844 149.698C44.5274 149.278 44.8897 149.023 45.1936 149.13L45.6873 149.383L49.2612 130.133L49.3781 126.768L49.1374 122.95L43.398 106.606L39.186 127.722L34.8837 150.595C35.0024 150.703 35.0856 150.846 35.1226 151.004C35.1595 151.162 35.1483 151.327 35.0905 151.479C35.0327 151.63 34.931 151.76 34.7988 151.851C34.6666 151.943 34.5101 151.992 34.35 151.991H28.4755C28.3713 151.991 28.268 151.97 28.1717 151.93C28.0754 151.889 27.9879 151.83 27.9142 151.755C27.8404 151.681 27.782 151.592 27.7421 151.494C27.7022 151.397 27.6816 151.292 27.6816 151.187C27.6816 151.081 27.7022 150.976 27.7421 150.879C27.782 150.781 27.8404 150.692 27.9142 150.618C27.9879 150.543 28.0754 150.484 28.1717 150.443C28.268 150.403 28.3713 150.382 28.4755 150.382Z" fill="#2F2E41"/>
<path d="M27.3357 91.44C26.8844 91.44 26.628 91.3503 26.5288 91.158C26.3831 90.8758 26.6359 90.5071 26.9285 90.0799C27.1456 89.801 27.3169 89.4884 27.4356 89.1542C27.6106 88.4448 28.7919 70.525 28.0853 66.9446C27.9219 66.1161 28.0626 65.0541 28.5034 63.7883C29.7075 60.3311 31.3511 59.2686 34.6253 57.1522C34.8911 56.9803 35.1679 56.8009 35.4556 56.6138C35.8279 56.3714 35.8071 55.5677 35.7852 54.7166C35.7609 53.7707 35.7356 52.7925 36.1929 52.1811L36.2227 52.1413L36.2706 52.13C37.3767 51.8709 41.0967 51.3898 43.2997 52.1335L43.3301 52.144L43.3529 52.1668C43.8762 52.6972 43.9239 53.7244 43.97 54.7177C44.0077 55.5332 44.0435 56.3032 44.3396 56.6378C46.6031 59.1945 49.1702 59.1447 49.1963 59.1442L49.3234 59.1404L49.3361 59.2686C50.3206 69.4173 51.9079 84.735 52.2452 85.3378C52.2628 85.3654 52.2727 85.3973 52.2736 85.4302C52.2746 85.463 52.2667 85.4955 52.2508 85.5242C51.7556 86.4617 29.0367 91.44 27.3357 91.44Z" fill="#3364FF"/>
<path d="M42.1206 49.2567C45.8284 49.2567 48.8341 46.2108 48.8341 42.4535C48.8341 38.6963 45.8284 35.6504 42.1206 35.6504C38.4129 35.6504 35.4072 38.6963 35.4072 42.4535C35.4072 46.2108 38.4129 49.2567 42.1206 49.2567Z" fill="#FFB8B8"/>
<path d="M23.6788 39.4166C24.8139 38.0752 25.3535 36.2955 26.2609 34.7723C27.1683 33.2491 28.7474 31.8858 30.4156 32.2403C31.5655 32.4847 32.4543 33.513 32.9042 34.6594C33.354 35.8058 33.4383 37.0701 33.5172 38.3087C33.4893 35.7634 35.1441 33.2959 37.4237 32.4837C39.703 31.6715 42.431 32.5775 43.8634 34.6223C44.4884 34.0352 45.3043 33.7009 46.1564 33.6828C47.0085 33.6647 47.8375 33.964 48.4863 34.524C49.7675 35.6844 50.0511 37.893 49.1088 39.3731C48.6357 40.0932 47.9195 40.6136 47.0946 40.8365C46.2697 41.0594 45.3928 40.9695 44.6287 40.5837L44.0993 41.0772C44.2364 41.6046 44.1863 42.1641 43.9575 42.6579C43.7288 43.1517 43.3361 43.5483 42.848 43.7783C42.0604 44.1008 40.9484 44.0471 40.6536 44.8848C40.4476 45.4701 40.8326 46.0948 41.2422 46.5446C41.6516 46.9943 42.1378 47.4588 42.187 48.0811C42.2613 49.0202 41.3037 49.678 40.4332 49.8762C39.366 50.0924 38.2594 49.981 37.255 49.5562C36.2506 49.1314 35.3942 48.4126 34.7953 47.4917C34.7719 47.4555 34.7466 47.4192 34.7192 47.3829C34.0404 46.5033 33.5458 45.4927 33.2654 44.4128C32.9851 43.3329 32.925 42.2064 33.0888 41.1021C33.1568 40.6683 33.0883 40.3456 32.7931 40.2428C31.5172 39.7987 27.9425 40.7308 26.8607 41.5733C25.7788 42.4157 24.9125 43.5306 23.8704 44.4274C22.8283 45.3242 21.5004 46.016 20.1773 45.7717C19.1176 45.5761 18.2161 44.7965 17.6097 43.8561C17.0379 42.8829 16.6106 41.8297 16.3418 40.7303C18.6851 42.102 21.8921 41.5278 23.6788 39.4166Z" fill="#2F2E41"/>
<path d="M52.8832 109.052C52.6526 108.798 52.4798 108.496 52.377 108.166C52.2742 107.837 52.2439 107.489 52.2882 107.146C52.3325 106.804 52.4504 106.475 52.6335 106.184C52.8167 105.893 53.0606 105.646 53.3481 105.46L51.4375 97.291L55.4813 98.7882L56.6758 106.316C56.9511 106.827 57.0323 107.421 56.9038 107.988C56.7753 108.555 56.4461 109.054 55.9787 109.391C55.5112 109.729 54.9379 109.88 54.3674 109.818C53.7969 109.755 53.2688 109.483 52.8832 109.052H52.8832Z" fill="#FFB8B8"/>
<path d="M43.1582 74.8188L44.7811 79.0477C44.7811 79.0477 44.0856 83.2767 45.2448 84.2165C46.404 85.1563 45.9403 85.1563 45.9403 85.8611C45.9803 86.3667 46.1248 86.8581 46.3644 87.3033C46.6041 87.7486 46.9336 88.1377 47.3314 88.4455C48.2588 89.1503 52.432 103.482 52.432 103.482H56.6052C56.4704 102.39 56.4704 101.285 56.6052 100.193C56.837 98.548 55.9096 94.3191 55.4459 93.6142C54.9823 92.9094 55.4459 91.9696 55.4459 90.56C55.4459 89.1503 54.5186 88.4455 54.5186 86.096C54.5186 83.7466 51.7364 65.421 51.9683 63.3065C52.2001 61.192 49.6498 59.3125 49.6498 59.3125H47.3314L43.1582 74.8188Z" fill="#3364FF"/>
</g>
<defs>
<clipPath id="clip0_234_938">
<rect width="228" height="166" fill="white"/>
</clipPath>
</defs>
</svg>
