<svg width="281" height="184" viewBox="0 0 281 184" fill="none" xmlns="http://www.w3.org/2000/svg">
<path d="M17.7986 153.671L16.9221 159.005C16.8561 159.413 16.787 159.828 16.712 160.24C15.9794 160.056 15.2198 160.107 14.5087 160.389C15.0729 161.367 15.5785 162.393 16.0216 163.459C15.4693 165.524 14.6588 167.432 13.302 168.812C12.3959 169.713 11.3136 170.316 10.1595 170.562C9.00542 170.808 7.81853 170.689 6.71327 170.217L6.75229 170.006C5.29346 166.572 6.08591 162.243 7.89895 159.071C8.82367 157.506 9.91931 156.101 11.1558 154.894C12.3805 153.656 13.7043 152.545 15.016 151.449C15.3106 151.204 15.659 151.07 16.0165 151.066C16.374 151.061 16.7246 151.186 17.0232 151.425C17.3219 151.663 17.5552 152.004 17.6934 152.404C17.8315 152.804 17.8681 153.245 17.7986 153.671Z" fill="#E4E4E4"/>
<path d="M7.02542 183.054C6.65651 179.794 6.27709 176.492 6.53584 173.197C6.76577 170.271 7.50149 167.413 8.99995 165.069C9.79526 163.827 10.763 162.764 11.8597 161.925C12.1457 161.707 12.4087 162.256 12.1241 162.474C10.2267 163.929 8.75904 166.077 7.93284 168.609C7.02031 171.424 6.87383 174.494 7.03232 177.485C7.12748 179.293 7.32889 181.09 7.5321 182.885C7.54847 182.966 7.53863 183.052 7.50459 183.124C7.47055 183.197 7.41489 183.251 7.349 183.276C7.28198 183.298 7.21053 183.287 7.15017 183.245C7.08981 183.204 7.04541 183.135 7.02662 183.054L7.02542 183.054Z" fill="#F2F2F2"/>
<path d="M10.1916 19.53C23.0502 19.2588 35.9101 19.2198 48.7714 19.4131C61.6308 19.6076 74.486 20.0354 87.3368 20.6964C94.5479 21.0674 101.756 21.5119 108.961 22.0298C109.54 22.0713 109.538 20.9787 108.961 20.9373C96.1234 20.0157 83.276 19.3262 70.4192 18.8686C57.5643 18.4122 44.7056 18.1892 31.8433 18.1996C24.6257 18.2054 17.4085 18.2847 10.1916 18.4376C9.61281 18.4498 9.61099 19.5423 10.1916 19.53V19.53Z" fill="#E6E6E6"/>
<path d="M99.8032 12.681L105.426 12.1733C106 12.1215 106.005 11.0286 105.426 11.0809L99.8032 11.5886C99.2288 11.6404 99.2241 12.7333 99.8032 12.681Z" fill="#E6E6E6"/>
<path d="M99.8032 19.2347L105.426 18.7271C106 18.6752 106.005 17.5823 105.426 17.6346L99.8032 18.1423C99.2288 18.1942 99.2241 19.287 99.8032 19.2347Z" fill="#E6E6E6"/>
<path d="M99.3806 16.2416L107.375 17.1226C107.952 17.1862 107.948 16.0934 107.375 16.0302L99.3806 15.1492C98.8037 15.0856 98.8072 16.1784 99.3806 16.2416Z" fill="#E6E6E6"/>
<path d="M13.5193 11.211C13.1283 11.2081 12.7452 11.3448 12.4178 11.6042C12.0904 11.8635 11.8332 12.2341 11.6783 12.6696C11.5049 13.0958 11.4514 13.5792 11.5259 14.0458C11.6004 14.5124 11.7989 14.9366 12.0909 15.2535C12.3654 15.5368 12.6947 15.7311 13.0479 15.8181C13.4011 15.9052 13.7668 15.8822 14.1107 15.7512C14.4624 15.6022 14.7674 15.3246 14.9836 14.9567C15.1999 14.5887 15.3169 14.1484 15.3184 13.6965C15.3341 13.1951 15.2221 12.7 14.9977 12.2785C14.7733 11.8571 14.4473 11.5297 14.0641 11.3409C13.949 11.3029 13.8261 11.3217 13.7224 11.3932C13.6186 11.4647 13.5424 11.583 13.5102 11.7224C13.4818 11.8619 13.4986 12.0093 13.5571 12.1343C13.6156 12.2593 13.7114 12.3524 13.8247 12.3943C13.9032 12.4311 13.753 12.3475 13.8263 12.3959C13.8564 12.4158 13.8871 12.4338 13.9167 12.4551C13.9418 12.4731 13.9659 12.4929 13.9904 12.5123C14.0744 12.5788 13.9493 12.4634 14.0031 12.5233C14.0497 12.5751 14.0958 12.6258 14.1382 12.683C14.1542 12.7046 14.2169 12.7648 14.1682 12.7228C14.1309 12.6906 14.1538 12.6981 14.1681 12.724C14.1791 12.7436 14.1906 12.7627 14.2014 12.7824C14.2365 12.8469 14.2684 12.9138 14.2969 12.9828C14.3035 12.9988 14.3096 13.0152 14.3163 13.031C14.3289 13.0608 14.3472 13.0686 14.3176 13.0313C14.2892 12.9957 14.3073 12.9981 14.3174 13.0324C14.3241 13.055 14.3313 13.0772 14.3378 13.0999C14.3589 13.1735 14.3767 13.2486 14.3909 13.3247C14.3975 13.3598 14.4028 13.3952 14.4085 13.4306C14.4286 13.556 14.4056 13.3526 14.4104 13.4458C14.4145 13.5236 14.4192 13.6005 14.4181 13.6786C14.4176 13.7144 14.4163 13.7501 14.4142 13.7857C14.4132 13.8035 14.4116 13.8212 14.4106 13.839C14.4059 13.9247 14.4058 13.8077 14.4157 13.7997C14.3951 13.8725 14.3814 13.9478 14.375 14.0244C14.3669 14.0583 14.3573 14.0915 14.3484 14.1251C14.317 14.2423 14.3778 14.0612 14.3444 14.1413C14.3169 14.2102 14.2862 14.277 14.2524 14.3415C14.2377 14.3686 14.1824 14.4296 14.2277 14.3871C14.2767 14.341 14.2019 14.4204 14.186 14.4408C14.1654 14.4671 14.1442 14.4924 14.1221 14.5168C14.108 14.5335 14.0931 14.5493 14.0774 14.5639C14.0746 14.5621 14.1527 14.5006 14.1106 14.5332C14.0571 14.5746 14.0064 14.6189 13.95 14.6549C13.9435 14.6591 13.8714 14.6996 13.8717 14.701C13.8686 14.6863 13.9644 14.6601 13.8986 14.6859C13.8848 14.6913 13.8713 14.6979 13.8575 14.7035C13.7976 14.7279 13.7366 14.7477 13.6746 14.7626C13.6604 14.766 13.6454 14.7678 13.6314 14.7721C13.5849 14.7867 13.6759 14.7636 13.6787 14.7655C13.6443 14.7637 13.6098 14.7674 13.5762 14.7765C13.5123 14.7809 13.4483 14.7809 13.3844 14.7765C13.3696 14.7754 13.3549 14.7736 13.3401 14.7726C13.3058 14.7702 13.2806 14.7402 13.3262 14.7728C13.3615 14.7979 13.3585 14.7795 13.3273 14.7726C13.3127 14.7693 13.2981 14.7665 13.2835 14.7632C13.2203 14.7488 13.1577 14.7303 13.0962 14.7075C13.0631 14.6953 13.0306 14.6811 12.9979 14.6672C12.9837 14.6622 12.9698 14.6557 12.9565 14.6479C12.9563 14.6434 13.0407 14.6968 12.9962 14.6677C12.9399 14.6309 12.8818 14.6001 12.8268 14.5599C12.7975 14.5384 12.7694 14.5151 12.7409 14.4921C12.7284 14.483 12.7164 14.4726 12.7053 14.4612C12.7062 14.4566 12.7751 14.534 12.7389 14.4922C12.6932 14.4393 12.6443 14.392 12.601 14.3357C12.5911 14.3229 12.5817 14.3094 12.5718 14.2965L12.5623 14.2833C12.5379 14.2471 12.5374 14.2472 12.5609 14.2838C12.5848 14.2923 12.5837 14.3241 12.5611 14.2828C12.553 14.2681 12.5444 14.2538 12.5364 14.2391C12.4998 14.1759 12.4686 14.1083 12.4433 14.0375C12.4455 14.0354 12.4823 14.1689 12.4542 14.0682C12.4488 14.0491 12.4429 14.0304 12.4376 14.0113C12.4273 13.9735 12.4182 13.9352 12.4103 13.8965C12.4025 13.8582 12.3986 13.8187 12.3907 13.7805C12.3775 13.7162 12.3984 13.8313 12.396 13.8284C12.3885 13.8194 12.3917 13.7636 12.3912 13.7503C12.3876 13.6646 12.3956 13.5814 12.3969 13.4962C12.3979 13.4302 12.3924 13.5476 12.3912 13.5442C12.3915 13.5244 12.3944 13.5048 12.3998 13.4862C12.4079 13.4412 12.4155 13.3964 12.4255 13.3519C12.4369 13.301 12.4501 13.2508 12.465 13.2012C12.4705 13.1826 12.4773 13.1643 12.4825 13.1456C12.5014 13.077 12.445 13.2284 12.4761 13.1666C12.5189 13.0815 12.5508 12.9894 12.5963 12.9053C12.6071 12.8854 12.6726 12.7744 12.6378 12.8305C12.6032 12.8863 12.6734 12.7805 12.6867 12.7626C12.742 12.6879 12.8069 12.6267 12.8641 12.5553C12.8979 12.513 12.8405 12.5761 12.8371 12.579C12.8548 12.5637 12.8721 12.5477 12.8901 12.5328C12.9213 12.5066 12.9533 12.4819 12.9861 12.4586C13.0231 12.4323 13.0648 12.4128 13.1006 12.385C13.1429 12.3522 13.0683 12.3994 13.067 12.4004C13.0863 12.3888 13.1065 12.3794 13.1273 12.3725C13.1621 12.3575 13.3138 12.2781 13.3456 12.303C13.3441 12.3018 13.2304 12.3141 13.3224 12.3069C13.3441 12.3052 13.3657 12.3026 13.3875 12.3015C13.4315 12.2993 13.4753 12.3007 13.5193 12.3034C13.6384 12.3025 13.7525 12.2446 13.8368 12.1424C13.9211 12.0402 13.9687 11.9018 13.9695 11.7572C13.967 11.6133 13.9187 11.4762 13.8348 11.3744C13.7509 11.2726 13.6379 11.2141 13.5193 11.211L13.5193 11.211Z" fill="#E6E6E6"/>
<path d="M19.8225 11.211C19.4315 11.2081 19.0484 11.3448 18.721 11.6042C18.3937 11.8635 18.1365 12.2341 17.9815 12.6696C17.8081 13.0958 17.7546 13.5792 17.8291 14.0458C17.9036 14.5124 18.1021 14.9366 18.3941 15.2535C18.6686 15.5368 18.9979 15.7311 19.3511 15.8181C19.7043 15.9052 20.07 15.8822 20.4139 15.7512C20.7656 15.6022 21.0706 15.3246 21.2869 14.9567C21.5031 14.5887 21.6201 14.1484 21.6216 13.6965C21.6373 13.1951 21.5253 12.7 21.3009 12.2785C21.0765 11.8571 20.7505 11.5297 20.3673 11.3409C20.2522 11.3029 20.1293 11.3217 20.0256 11.3932C19.9218 11.4647 19.8456 11.583 19.8134 11.7224C19.785 11.8619 19.8018 12.0093 19.8603 12.1343C19.9188 12.2593 20.0146 12.3524 20.1279 12.3943C20.2064 12.4311 20.0562 12.3475 20.1295 12.3959C20.1596 12.4158 20.1903 12.4338 20.2199 12.4551C20.2451 12.4731 20.2691 12.4929 20.2936 12.5123C20.3776 12.5788 20.2526 12.4634 20.3063 12.5233C20.3529 12.5751 20.399 12.6258 20.4414 12.683C20.4574 12.7046 20.5201 12.7648 20.4714 12.7228C20.4341 12.6906 20.457 12.6981 20.4714 12.724C20.4823 12.7436 20.4938 12.7627 20.5046 12.7824C20.5397 12.8469 20.5716 12.9138 20.6001 12.9828C20.6068 12.9988 20.6128 13.0152 20.6195 13.031C20.6321 13.0608 20.6504 13.0686 20.6208 13.0313C20.5925 12.9957 20.6105 12.9981 20.6206 13.0324C20.6273 13.055 20.6346 13.0772 20.641 13.0999C20.6622 13.1735 20.6799 13.2486 20.6941 13.3247C20.7007 13.3598 20.706 13.3952 20.7117 13.4306C20.7318 13.556 20.7088 13.3526 20.7136 13.4458C20.7177 13.5236 20.7224 13.6005 20.7213 13.6786C20.7208 13.7144 20.7195 13.7501 20.7175 13.7857C20.7164 13.8035 20.7148 13.8212 20.7138 13.839C20.7092 13.9247 20.709 13.8077 20.7189 13.7997C20.6983 13.8725 20.6847 13.9478 20.6782 14.0244C20.6701 14.0583 20.6606 14.0915 20.6516 14.1251C20.6203 14.2423 20.681 14.0612 20.6476 14.1413C20.6201 14.2102 20.5894 14.277 20.5556 14.3415C20.541 14.3686 20.4856 14.4296 20.5309 14.3871C20.58 14.341 20.5051 14.4204 20.4892 14.4408C20.4687 14.4671 20.4474 14.4924 20.4253 14.5168C20.4112 14.5335 20.3963 14.5493 20.3807 14.5639C20.3778 14.5621 20.4559 14.5006 20.4138 14.5332C20.3603 14.5746 20.3096 14.6189 20.2533 14.6549C20.2467 14.6591 20.1746 14.6996 20.1749 14.701C20.1718 14.6863 20.2676 14.6601 20.2018 14.6859C20.188 14.6913 20.1745 14.6979 20.1607 14.7035C20.1009 14.7279 20.0398 14.7477 19.9778 14.7626C19.9636 14.766 19.9486 14.7678 19.9347 14.7721C19.8881 14.7867 19.9791 14.7636 19.9819 14.7655C19.9475 14.7637 19.913 14.7674 19.8794 14.7765C19.8155 14.7809 19.7515 14.7809 19.6876 14.7765C19.6728 14.7754 19.6581 14.7736 19.6433 14.7726C19.609 14.7702 19.5838 14.7402 19.6295 14.7728C19.6647 14.7979 19.6618 14.7795 19.6306 14.7726C19.616 14.7693 19.6013 14.7665 19.5867 14.7632C19.5235 14.7488 19.4609 14.7303 19.3994 14.7075C19.3663 14.6953 19.3338 14.6811 19.3012 14.6672C19.2869 14.6622 19.2731 14.6557 19.2597 14.6479C19.2595 14.6434 19.3439 14.6968 19.2994 14.6677C19.2431 14.6309 19.185 14.6001 19.1301 14.5599C19.1008 14.5384 19.0726 14.5151 19.0441 14.4921C19.0316 14.483 19.0197 14.4726 19.0085 14.4612C19.0094 14.4566 19.0783 14.534 19.0421 14.4922C18.9964 14.4393 18.9475 14.392 18.9042 14.3357C18.8943 14.3229 18.8849 14.3094 18.8751 14.2965L18.8655 14.2833C18.8411 14.2471 18.8407 14.2472 18.8642 14.2838C18.888 14.2923 18.8869 14.3241 18.8643 14.2828C18.8562 14.2681 18.8476 14.2538 18.8396 14.2391C18.803 14.1759 18.7718 14.1083 18.7465 14.0375C18.7487 14.0354 18.7855 14.1689 18.7574 14.0682C18.7521 14.0491 18.7461 14.0304 18.7409 14.0113C18.7305 13.9735 18.7214 13.9352 18.7136 13.8965C18.7058 13.8582 18.7018 13.8187 18.6939 13.7805C18.6807 13.7162 18.7017 13.8313 18.6993 13.8284C18.6918 13.8194 18.695 13.7636 18.6944 13.7503C18.6908 13.6646 18.6988 13.5814 18.7001 13.4962C18.7011 13.4302 18.6956 13.5476 18.6945 13.5442C18.6947 13.5244 18.6976 13.5048 18.703 13.4862C18.7112 13.4412 18.7187 13.3964 18.7287 13.3519C18.7401 13.301 18.7533 13.2508 18.7682 13.2012C18.7737 13.1826 18.7805 13.1643 18.7857 13.1456C18.8046 13.077 18.7482 13.2284 18.7793 13.1666C18.8221 13.0815 18.8541 12.9894 18.8995 12.9053C18.9103 12.8854 18.9758 12.7744 18.9411 12.8305C18.9064 12.8863 18.9767 12.7805 18.99 12.7626C19.0452 12.6879 19.1101 12.6267 19.1673 12.5553C19.2012 12.513 19.1437 12.5761 19.1403 12.579C19.158 12.5637 19.1753 12.5477 19.1933 12.5328C19.2245 12.5066 19.2566 12.4819 19.2894 12.4586C19.3263 12.4323 19.3681 12.4128 19.4039 12.385C19.4462 12.3522 19.3715 12.3994 19.3702 12.4004C19.3895 12.3888 19.4097 12.3794 19.4305 12.3725C19.4654 12.3575 19.617 12.2781 19.6488 12.303C19.6474 12.3018 19.5337 12.3141 19.6256 12.3069C19.6473 12.3052 19.6689 12.3026 19.6907 12.3015C19.7347 12.2993 19.7785 12.3007 19.8225 12.3034C19.9417 12.3025 20.0557 12.2446 20.14 12.1424C20.2243 12.0402 20.272 11.9018 20.2727 11.7572C20.2702 11.6133 20.2219 11.4762 20.138 11.3744C20.0542 11.2726 19.9411 11.2141 19.8225 11.211L19.8225 11.211Z" fill="#E6E6E6"/>
<path d="M26.1262 11.211C25.7352 11.2081 25.3521 11.3448 25.0247 11.6042C24.6974 11.8635 24.4402 12.2341 24.2852 12.6696C24.1118 13.0958 24.0583 13.5792 24.1328 14.0458C24.2073 14.5124 24.4058 14.9366 24.6978 15.2535C24.9723 15.5368 25.3016 15.7311 25.6548 15.8181C26.0081 15.9052 26.3737 15.8822 26.7176 15.7512C27.0693 15.6022 27.3743 15.3246 27.5906 14.9567C27.8069 14.5887 27.9238 14.1484 27.9253 13.6965C27.941 13.1951 27.829 12.7 27.6046 12.2785C27.3802 11.8571 27.0542 11.5297 26.671 11.3409C26.5559 11.3029 26.4331 11.3217 26.3293 11.3932C26.2256 11.4647 26.1493 11.583 26.1172 11.7224C26.0888 11.8619 26.1055 12.0093 26.164 12.1343C26.2225 12.2593 26.3183 12.3524 26.4316 12.3943C26.5101 12.4311 26.3599 12.3475 26.4332 12.3959C26.4633 12.4158 26.494 12.4338 26.5236 12.4551C26.5488 12.4731 26.5728 12.4929 26.5973 12.5123C26.6814 12.5788 26.5563 12.4634 26.61 12.5233C26.6566 12.5751 26.7028 12.6258 26.7451 12.683C26.7611 12.7046 26.8238 12.7648 26.7751 12.7228C26.7378 12.6906 26.7607 12.6981 26.7751 12.724C26.786 12.7436 26.7975 12.7627 26.8083 12.7824C26.8434 12.8469 26.8753 12.9138 26.9039 12.9828C26.9105 12.9988 26.9165 13.0152 26.9233 13.031C26.9359 13.0608 26.9541 13.0686 26.9245 13.0313C26.8962 12.9957 26.9142 12.9981 26.9243 13.0324C26.931 13.055 26.9383 13.0772 26.9448 13.0999C26.9659 13.1735 26.9836 13.2486 26.9978 13.3247C27.0044 13.3598 27.0097 13.3952 27.0154 13.4306C27.0355 13.556 27.0125 13.3526 27.0174 13.4458C27.0214 13.5236 27.0261 13.6005 27.025 13.6786C27.0245 13.7144 27.0232 13.7501 27.0212 13.7857C27.0201 13.8035 27.0185 13.8212 27.0175 13.839C27.0129 13.9247 27.0127 13.8077 27.0226 13.7997C27.002 13.8725 26.9884 13.9478 26.9819 14.0244C26.9739 14.0583 26.9643 14.0915 26.9553 14.1251C26.924 14.2423 26.9847 14.0612 26.9513 14.1413C26.9239 14.2102 26.8931 14.277 26.8593 14.3415C26.8447 14.3686 26.7894 14.4296 26.8346 14.3871C26.8837 14.341 26.8089 14.4204 26.7929 14.4408C26.7724 14.4671 26.7511 14.4924 26.729 14.5168C26.7149 14.5335 26.7 14.5493 26.6844 14.5639C26.6815 14.5621 26.7596 14.5006 26.7175 14.5332C26.664 14.5746 26.6134 14.6189 26.557 14.6549C26.5504 14.6591 26.4783 14.6996 26.4786 14.701C26.4755 14.6863 26.5713 14.6601 26.5055 14.6859C26.4917 14.6913 26.4782 14.6979 26.4644 14.7035C26.4046 14.7279 26.3435 14.7477 26.2815 14.7626C26.2674 14.766 26.2524 14.7678 26.2384 14.7721C26.1918 14.7867 26.2829 14.7636 26.2856 14.7655C26.2512 14.7637 26.2167 14.7674 26.1831 14.7765C26.1192 14.7809 26.0552 14.7809 25.9913 14.7765C25.9765 14.7754 25.9618 14.7736 25.947 14.7726C25.9127 14.7702 25.8875 14.7402 25.9332 14.7728C25.9684 14.7979 25.9655 14.7795 25.9343 14.7726C25.9197 14.7693 25.905 14.7665 25.8904 14.7632C25.8272 14.7488 25.7647 14.7303 25.7031 14.7075C25.67 14.6953 25.6375 14.6811 25.6049 14.6672C25.5906 14.6622 25.5768 14.6557 25.5635 14.6479C25.5633 14.6434 25.6477 14.6968 25.6031 14.6677C25.5469 14.6309 25.4887 14.6001 25.4338 14.5599C25.4045 14.5384 25.3763 14.5151 25.3478 14.4921C25.3353 14.483 25.3234 14.4726 25.3122 14.4612C25.3131 14.4566 25.382 14.534 25.3458 14.4922C25.3001 14.4393 25.2512 14.392 25.2079 14.3357C25.198 14.3229 25.1887 14.3094 25.1788 14.2965L25.1692 14.2833C25.1448 14.2471 25.1444 14.2472 25.1679 14.2838C25.1917 14.2923 25.1906 14.3241 25.168 14.2828C25.1599 14.2681 25.1514 14.2538 25.1433 14.2391C25.1067 14.1759 25.0756 14.1083 25.0502 14.0375C25.0524 14.0354 25.0892 14.1689 25.0611 14.0682C25.0558 14.0491 25.0498 14.0304 25.0446 14.0113C25.0342 13.9735 25.0251 13.9352 25.0173 13.8965C25.0095 13.8582 25.0055 13.8187 24.9976 13.7805C24.9844 13.7162 25.0054 13.8313 25.003 13.8284C24.9955 13.8194 24.9987 13.7636 24.9981 13.7503C24.9945 13.6646 25.0026 13.5814 25.0038 13.4962C25.0048 13.4302 24.9993 13.5476 24.9982 13.5442C24.9985 13.5244 25.0013 13.5048 25.0067 13.4862C25.0149 13.4412 25.0225 13.3964 25.0324 13.3519C25.0439 13.301 25.057 13.2508 25.0719 13.2012C25.0775 13.1826 25.0842 13.1643 25.0894 13.1456C25.1084 13.077 25.0519 13.2284 25.083 13.1666C25.1259 13.0815 25.1578 12.9894 25.2032 12.9053C25.214 12.8854 25.2796 12.7744 25.2448 12.8305C25.2101 12.8863 25.2804 12.7805 25.2937 12.7626C25.3489 12.6879 25.4138 12.6267 25.471 12.5553C25.5049 12.513 25.4474 12.5761 25.444 12.579C25.4617 12.5637 25.4791 12.5477 25.497 12.5328C25.5282 12.5066 25.5603 12.4819 25.5931 12.4586C25.63 12.4323 25.6718 12.4128 25.7076 12.385C25.7499 12.3522 25.6752 12.3994 25.6739 12.4004C25.6932 12.3888 25.7134 12.3794 25.7342 12.3725C25.7691 12.3575 25.9207 12.2781 25.9525 12.303C25.9511 12.3018 25.8374 12.3141 25.9293 12.3069C25.951 12.3052 25.9726 12.3026 25.9944 12.3015C26.0384 12.2993 26.0822 12.3007 26.1262 12.3034C26.2454 12.3025 26.3594 12.2446 26.4437 12.1424C26.528 12.0402 26.5757 11.9018 26.5765 11.7572C26.5739 11.6133 26.5257 11.4762 26.4418 11.3744C26.3579 11.2726 26.2448 11.2141 26.1262 11.211L26.1262 11.211Z" fill="#E6E6E6"/>
<path d="M6.57262 81.2429L45.4086 81.0996L84.0464 80.957L105.842 80.8766C105.959 80.8717 106.069 80.812 106.151 80.7101C106.232 80.6082 106.277 80.4721 106.277 80.3304C106.277 80.1887 106.232 80.0526 106.151 79.9507C106.069 79.8488 105.959 79.7891 105.842 79.7842L67.0061 79.9275L28.3683 80.0701L6.57262 80.1505C6.45591 80.1554 6.34532 80.2151 6.26418 80.317C6.18305 80.4189 6.1377 80.555 6.1377 80.6967C6.1377 80.8384 6.18305 80.9745 6.26418 81.0764C6.34532 81.1783 6.45591 81.238 6.57262 81.2429Z" fill="#E6E6E6"/>
<path d="M26.1648 80.3564L26.4049 63.1554C26.4147 62.4522 25.5142 62.452 25.5044 63.1554L25.2642 80.3564C25.2544 81.0597 26.1549 81.0598 26.1648 80.3564Z" fill="#E6E6E6"/>
<path d="M44.726 80.543L45.3112 58.9222L45.4784 52.7448C45.4974 52.0417 44.5969 52.0425 44.5779 52.7448L43.9927 74.3656L43.8255 80.543C43.8065 81.2462 44.707 81.2453 44.726 80.543Z" fill="#E6E6E6"/>
<path d="M63.2369 42.4957C62.8839 50.1536 62.2308 72.7414 61.8778 80.3993C61.8454 81.1017 62.746 81.0995 62.7783 80.3993C63.1313 72.7414 63.7845 50.1536 64.1374 42.4957C64.1698 41.7933 63.2692 41.7955 63.2369 42.4957Z" fill="#E6E6E6"/>
<path d="M81.6593 72.715L81.5489 80.0755C81.5384 80.7788 82.4389 80.7789 82.4494 80.0755C82.5798 71.3823 82.9141 71.6656 82.9509 69.2121C82.9615 68.5089 82.061 68.5088 82.0504 69.2121C82.0504 69.2121 81.7897 64.0218 81.6593 72.715Z" fill="#E6E6E6"/>
<path d="M99.7031 53.3792L99.805 74.0292L99.8341 79.9422C99.8382 80.0838 99.8874 80.218 99.9714 80.3164C100.055 80.4149 100.168 80.4699 100.284 80.4699C100.401 80.4699 100.513 80.4149 100.597 80.3164C100.681 80.218 100.731 80.0838 100.735 79.9422L100.633 59.2922L100.604 53.3792C100.6 53.2376 100.55 53.1034 100.466 53.005C100.382 52.9066 100.27 52.8516 100.153 52.8516C100.037 52.8516 99.9244 52.9066 99.8404 53.005C99.7564 53.1034 99.7072 53.2376 99.7031 53.3792Z" fill="#E6E6E6"/>
<path d="M6.64497 80.628C5.89957 78.1431 7.57985 75.7531 9.30638 74.6792C11.3749 73.3926 13.7544 73.1009 15.8448 71.8606C18.9613 70.0115 21.2312 66.6929 23.251 63.371C25.3299 59.952 27.2321 56.2825 29.8738 53.4417C31.2658 51.9114 32.9098 50.7572 34.6971 50.0555C36.9491 49.2029 39.3374 49.1445 41.6644 49.488C46.4727 50.198 50.9301 52.6072 55.5695 54.1385C59.9436 55.5821 64.7631 56.394 69.0564 54.149C71.2378 53.0084 73.0215 51.0954 74.9374 49.44C76.7916 47.8211 78.8648 46.6079 81.0634 45.8552C85.3732 44.4013 90.0799 44.7895 94.0924 47.2473C97.7808 49.4775 100.701 53.2166 102.338 57.8047C104.24 63.3173 103.993 69.4775 103.371 75.2799C103.211 76.7797 103.019 78.2745 102.826 79.7685C102.737 80.4563 103.605 80.7526 103.695 80.0589C104.468 74.0758 105.24 67.9031 104.277 61.8823C103.445 56.6251 101.062 51.9159 97.5739 48.6361C94.0715 45.3473 89.7175 43.6804 85.2934 43.9345C82.9751 44.065 80.6928 44.6808 78.5473 45.7546C76.3203 46.8721 74.4344 48.5285 72.5188 50.2713C70.5493 52.0633 68.519 53.5455 66.0738 54.1299C63.702 54.6968 61.2346 54.4843 58.8732 53.9491C54.0007 52.8447 49.459 50.3131 44.6279 49.0159C40.1519 47.8141 35.3218 47.694 31.3137 50.7616C28.2305 53.1212 26.0519 56.7845 23.961 60.3218C21.8885 63.828 19.7898 67.5774 16.7593 69.9726C14.9106 71.4337 12.8325 71.9728 10.7645 72.7945C8.69108 73.6182 6.70062 75.008 5.85522 77.5849C5.49086 78.6463 5.46287 79.8335 5.77662 80.9184C5.97323 81.5738 6.84381 81.2908 6.64497 80.628V80.628Z" fill="#E6E6E6"/>
<path d="M25.8661 60.7773L25.8647 60.778L25.8675 60.7773H25.8661Z" fill="#E6E6E6"/>
<path d="M27.4275 59.7724C27.2194 59.3253 26.8874 58.9821 26.4904 58.8039C26.0935 58.6257 25.6573 58.6239 25.2594 58.7989C25.0615 58.8865 24.8802 59.0213 24.7261 59.1954C24.572 59.3695 24.4482 59.5793 24.3621 59.8124C24.3449 59.8619 24.3348 59.914 24.3207 59.9648C24.3012 60.0031 24.2778 60.0376 24.2603 60.0777C24.0737 60.5288 24.0225 61.0448 24.1158 61.5368C24.209 62.0287 24.4407 62.4659 24.7711 62.7729C25.1014 63.0798 25.5096 63.2375 25.9254 63.2186C26.3412 63.1998 26.7386 63.0056 27.0491 62.6696C27.3755 62.3117 27.591 61.8291 27.6598 61.302C27.7287 60.7749 27.6467 60.2351 27.4275 59.7724ZM26.2997 60.7001C26.3034 60.7277 26.3021 60.753 26.2997 60.7001V60.7001ZM26.1851 60.3839C26.1807 60.3777 26.1812 60.3784 26.1851 60.3839V60.3839ZM25.6798 60.6304C25.673 60.6177 25.6724 60.6156 25.6798 60.6304V60.6304ZM25.7996 60.7535C25.8281 60.7653 25.8168 60.7629 25.7996 60.7535V60.7535ZM25.853 60.7845L25.8649 60.7779C25.862 60.7782 25.8591 60.7775 25.8565 60.7759L25.8568 60.7758L25.8661 60.7772L25.8679 60.7762L25.8625 60.7747C25.8672 60.7745 25.8677 60.7753 25.868 60.7762C25.9216 60.7464 25.8853 60.7607 25.8542 60.7724L25.8522 60.7718C25.8328 60.7599 25.8119 60.7518 25.7904 60.7478C25.7884 60.7464 25.7861 60.7455 25.7844 60.744C25.7672 60.7291 25.6801 60.6465 25.7609 60.7331C25.7433 60.7143 25.7259 60.6958 25.7094 60.6754C25.6996 60.6633 25.6908 60.6501 25.6829 60.636C25.6723 60.614 25.6621 60.5917 25.6521 60.5692L25.6506 60.5571C25.6493 60.5471 25.6483 60.5429 25.6472 60.5368C25.6477 60.5306 25.6485 60.5239 25.6493 60.5174C25.6554 60.4977 25.6592 60.4772 25.6608 60.4563L25.6642 60.451C25.6772 60.4291 25.6885 60.4036 25.7008 60.3808C25.6356 60.501 25.7264 60.3675 25.7332 60.3506C25.7343 60.3477 25.7323 60.3493 25.7328 60.3473C25.7354 60.3455 25.7346 60.3467 25.7378 60.3445C25.758 60.33 25.7772 60.3139 25.7977 60.3001C25.8222 60.2837 25.9185 60.2505 25.8186 60.2851C25.8413 60.2773 25.8631 60.2673 25.886 60.2601C25.8902 60.2588 25.9238 60.253 25.942 60.2491C25.9579 60.2486 25.9733 60.248 25.9749 60.248C25.9824 60.2482 25.9899 60.2493 25.9974 60.2497C25.9808 60.2524 26.0543 60.2716 26.0761 60.2757C26.0792 60.2787 26.0808 60.2806 26.0851 60.2844C26.1036 60.3008 26.126 60.3153 26.1455 60.3306C26.0584 60.2623 26.1466 60.336 26.1633 60.3562C26.1732 60.3683 26.1824 60.3811 26.1917 60.3938C26.2003 60.4059 26.2081 60.4188 26.2149 60.4324C26.2292 60.4642 26.2444 60.4963 26.2594 60.5275L26.2636 60.5355C26.2635 60.5365 26.2634 60.5376 26.2634 60.5386C26.2713 60.5893 26.2828 60.6389 26.2979 60.6871C26.2987 60.6912 26.2992 60.6953 26.2996 60.6994C26.301 60.7272 26.3029 60.7548 26.303 60.7827L26.3028 60.7883C26.2334 60.7445 26.1565 60.7213 26.0783 60.7206C26.0001 60.7199 25.9229 60.7418 25.853 60.7845H25.853Z" fill="#E6E6E6"/>
<path d="M25.8692 60.7764C25.8719 60.7772 25.8693 60.7771 25.8687 60.7773L25.8692 60.7764Z" fill="#E6E6E6"/>
<path d="M25.8696 60.7773L25.8672 60.7777C25.8703 60.7781 25.8692 60.7775 25.8696 60.7773Z" fill="#E6E6E6"/>
<path d="M25.8677 60.7764L25.8687 60.7769L25.8677 60.7764Z" fill="#E6E6E6"/>
<path d="M45.077 50.5811L45.0757 50.5817L45.0784 50.5811H45.077Z" fill="#E6E6E6"/>
<path d="M46.6385 49.5761C46.4303 49.129 46.0983 48.7859 45.7013 48.6076C45.3044 48.4294 44.8682 48.4276 44.4703 48.6026C44.2725 48.6902 44.0912 48.825 43.937 48.9991C43.7829 49.1732 43.6592 49.383 43.5731 49.6161C43.5558 49.6656 43.5457 49.7177 43.5317 49.7685C43.5122 49.8068 43.4887 49.8413 43.4712 49.8814C43.2846 50.3325 43.2335 50.8485 43.3267 51.3405C43.4199 51.8324 43.6517 52.2696 43.982 52.5766C44.3123 52.8835 44.7205 53.0412 45.1363 53.0223C45.5522 53.0035 45.9496 52.8093 46.2601 52.4733C46.5864 52.1154 46.8019 51.6328 46.8708 51.1057C46.9396 50.5786 46.8576 50.0388 46.6385 49.5761ZM45.5106 50.5038C45.5143 50.5314 45.513 50.5567 45.5106 50.5038V50.5038ZM45.396 50.1876C45.3916 50.1814 45.3921 50.1821 45.396 50.1876V50.1876ZM44.8907 50.4341C44.884 50.4214 44.8833 50.4193 44.8907 50.4341V50.4341ZM45.0105 50.5572C45.039 50.569 45.0277 50.5666 45.0105 50.5572V50.5572ZM45.064 50.5882L45.0758 50.5816C45.0729 50.5819 45.07 50.5812 45.0674 50.5796L45.0678 50.5795L45.077 50.5809L45.0788 50.5799L45.0734 50.5784C45.0781 50.5782 45.0786 50.579 45.0789 50.5799C45.1325 50.5501 45.0962 50.5644 45.0652 50.5761L45.0631 50.5755C45.0437 50.5636 45.0228 50.5555 45.0013 50.5515C44.9994 50.5501 44.997 50.5492 44.9953 50.5477C44.9781 50.5328 44.891 50.4503 44.9718 50.5368C44.9542 50.518 44.9368 50.4995 44.9203 50.4791C44.9105 50.467 44.9017 50.4538 44.8939 50.4397C44.8833 50.4177 44.873 50.3954 44.863 50.373L44.8615 50.3608C44.8602 50.3508 44.8592 50.3466 44.8581 50.3405C44.8586 50.3343 44.8594 50.3276 44.8602 50.3211C44.8663 50.3014 44.8701 50.2809 44.8717 50.26L44.8752 50.2547C44.8881 50.2328 44.8994 50.2073 44.9118 50.1845C44.8465 50.3047 44.9373 50.1712 44.9441 50.1543C44.9452 50.1514 44.9432 50.153 44.9437 50.151C44.9463 50.1492 44.9455 50.1505 44.9487 50.1482C44.9689 50.1337 44.9881 50.1176 45.0086 50.1038C45.0331 50.0874 45.1295 50.0542 45.0295 50.0888C45.0522 50.081 45.074 50.071 45.097 50.0638C45.1011 50.0625 45.1348 50.0568 45.1529 50.0528C45.1688 50.0523 45.1842 50.0517 45.1859 50.0518C45.1933 50.0519 45.2008 50.053 45.2083 50.0534C45.1917 50.0561 45.2652 50.0753 45.287 50.0794C45.2901 50.0824 45.2918 50.0843 45.2961 50.0881C45.3145 50.1045 45.3369 50.119 45.3564 50.1343C45.2693 50.066 45.3576 50.1397 45.3742 50.1599C45.3841 50.172 45.3933 50.1848 45.4027 50.1975C45.4112 50.2096 45.419 50.2225 45.4259 50.2361C45.4401 50.2679 45.4553 50.3 45.4703 50.3312L45.4745 50.3392C45.4744 50.3402 45.4744 50.3413 45.4744 50.3423C45.4822 50.393 45.4937 50.4426 45.5088 50.4908C45.5096 50.4949 45.5101 50.499 45.5105 50.5031C45.5119 50.5309 45.5138 50.5585 45.5139 50.5864L45.5137 50.5921C45.4443 50.5482 45.3674 50.525 45.2892 50.5243C45.211 50.5236 45.1338 50.5455 45.064 50.5882Z" fill="#E6E6E6"/>
<path d="M45.0806 50.5811L45.0781 50.5814C45.0812 50.5817 45.0801 50.5812 45.0806 50.5811Z" fill="#E6E6E6"/>
<path d="M45.0791 50.5801L45.0811 50.5811L45.0791 50.5801Z" fill="#E6E6E6"/>
<path d="M45.0801 50.5811C45.0828 50.5819 45.0802 50.5818 45.0796 50.582L45.0801 50.5811Z" fill="#E6E6E6"/>
<path d="M63.6895 55.6777L63.6915 55.6787L63.6895 55.6777Z" fill="#E6E6E6"/>
<path d="M65.2488 39.3808C65.0407 38.9337 64.7087 38.5905 64.3117 38.4123C63.9147 38.2341 63.4786 38.2323 63.0806 38.4073C62.8828 38.4949 62.7015 38.6297 62.5474 38.8038C62.3933 38.9779 62.2695 39.1877 62.1834 39.4208C62.1662 39.4703 62.1561 39.5224 62.142 39.5732C62.1225 39.6115 62.0991 39.646 62.0816 39.686C61.8949 40.1372 61.8438 40.6532 61.9371 41.1452C62.0303 41.6371 62.262 42.0743 62.5923 42.3812C62.9227 42.6882 63.3309 42.8459 63.7467 42.827C64.1625 42.8082 64.5599 42.614 64.8704 42.278C65.1968 41.9201 65.4123 41.4375 65.4811 40.9104C65.55 40.3833 65.468 39.8435 65.2488 39.3808ZM64.121 40.3085C64.1247 40.3361 64.1233 40.3614 64.121 40.3085V40.3085ZM64.0064 39.9923C64.002 39.9861 64.0025 39.9868 64.0064 39.9923V39.9923ZM63.5011 40.2388C63.4943 40.2261 63.4937 40.224 63.5011 40.2388V40.2388ZM63.6208 40.3619C63.6494 40.3737 63.6381 40.3712 63.6208 40.3619V40.3619ZM63.6743 40.3929L63.6862 40.3863C63.6833 40.3866 63.6803 40.3859 63.6778 40.3843L63.6781 40.3842L63.6874 40.3856L63.6891 40.3846L63.6838 40.3831C63.6884 40.3829 63.689 40.3837 63.6893 40.3846C63.7428 40.3548 63.7066 40.3691 63.6755 40.3808L63.6734 40.3802C63.654 40.3683 63.6332 40.3602 63.6117 40.3562C63.6097 40.3548 63.6074 40.3538 63.6057 40.3524C63.5885 40.3375 63.5013 40.2549 63.5822 40.3415C63.5646 40.3227 63.5472 40.3042 63.5306 40.2838C63.5209 40.2717 63.512 40.2585 63.5042 40.2444C63.4936 40.2224 63.4833 40.2001 63.4734 40.1776L63.4719 40.1655C63.4706 40.1555 63.4696 40.1513 63.4685 40.1452C63.469 40.139 63.4698 40.1323 63.4706 40.1258C63.4766 40.1061 63.4805 40.0856 63.482 40.0647L63.4855 40.0594C63.4985 40.0375 63.5098 40.012 63.5221 39.9892C63.4569 40.1094 63.5476 39.9759 63.5544 39.959C63.5556 39.9561 63.5536 39.9577 63.5541 39.9557C63.5567 39.9539 63.5559 39.9551 63.5591 39.9529C63.5793 39.9384 63.5985 39.9223 63.619 39.9085C63.6435 39.8921 63.7398 39.8589 63.6399 39.8935C63.6626 39.8857 63.6844 39.8757 63.7073 39.8685C63.7115 39.8672 63.7451 39.8614 63.7632 39.8575C63.7791 39.857 63.7946 39.8564 63.7962 39.8564C63.8037 39.8566 63.8112 39.8577 63.8186 39.8581C63.802 39.8608 63.8755 39.88 63.8974 39.8841C63.9005 39.8871 63.9021 39.889 63.9064 39.8928C63.9249 39.9092 63.9473 39.9237 63.9668 39.939C63.8797 39.8707 63.9679 39.9444 63.9845 39.9646C63.9945 39.9767 64.0037 39.9895 64.013 40.0022C64.0216 40.0143 64.0294 40.0272 64.0362 40.0408C64.0505 40.0726 64.0657 40.1047 64.0807 40.1359L64.0848 40.1439C64.0847 40.1449 64.0847 40.146 64.0847 40.147C64.0925 40.1977 64.1041 40.2473 64.1192 40.2955C64.1199 40.2996 64.1205 40.3037 64.1209 40.3078C64.1223 40.3356 64.1242 40.3632 64.1242 40.3911L64.124 40.3967C64.0547 40.3529 63.9778 40.3297 63.8996 40.329C63.8214 40.3283 63.7442 40.3502 63.6743 40.3929Z" fill="#E6E6E6"/>
<path d="M63.6879 55.6797L63.6865 55.6804L63.6893 55.6797H63.6879Z" fill="#E6E6E6"/>
<path d="M63.6914 55.6787L63.689 55.6791C63.6921 55.6794 63.6909 55.6789 63.6914 55.6787Z" fill="#E6E6E6"/>
<path d="M63.6909 55.6787C63.6937 55.6796 63.691 55.6794 63.6904 55.6797L63.6909 55.6787Z" fill="#E6E6E6"/>
<path d="M84.1599 67.4199C83.9518 66.9727 83.6198 66.6296 83.2228 66.4514C82.8259 66.2731 82.3897 66.2714 81.9918 66.4464C81.794 66.534 81.6126 66.6688 81.4585 66.8429C81.3044 67.0169 81.1806 67.2267 81.0945 67.4598C81.0773 67.5094 81.0672 67.5615 81.0531 67.6122C81.0336 67.6505 81.0102 67.6851 80.9927 67.7251C80.8061 68.1763 80.755 68.6923 80.8482 69.1842C80.9414 69.6762 81.1732 70.1133 81.5035 70.4203C81.8338 70.7273 82.242 70.8849 82.6578 70.8661C83.0736 70.8473 83.471 70.6531 83.7815 70.3171C84.1079 69.9592 84.3234 69.4766 84.3922 68.9495C84.4611 68.4224 84.3791 67.8826 84.1599 67.4199ZM83.0321 68.3476C83.0358 68.3751 83.0345 68.4005 83.0321 68.3476V68.3476ZM82.9175 68.0313C82.9131 68.0252 82.9136 68.0258 82.9175 68.0313V68.0313ZM82.4122 68.2778C82.4054 68.2652 82.4048 68.2631 82.4122 68.2778V68.2778ZM82.532 68.401C82.5605 68.4128 82.5492 68.4103 82.532 68.401V68.401ZM82.5854 68.4319L82.5973 68.4253C82.5944 68.4257 82.5915 68.425 82.5889 68.4233L82.5892 68.4232L82.5985 68.4246L82.6003 68.4237L82.5949 68.4222C82.5995 68.422 82.6001 68.4227 82.6004 68.4236C82.654 68.3939 82.6177 68.4082 82.5866 68.4199L82.5846 68.4193C82.5652 68.4073 82.5443 68.3992 82.5228 68.3952C82.5208 68.3939 82.5185 68.3929 82.5168 68.3915C82.4996 68.3766 82.4124 68.294 82.4933 68.3806C82.4757 68.3617 82.4583 68.3432 82.4418 68.3229C82.432 68.3107 82.4232 68.2975 82.4153 68.2835C82.4047 68.2614 82.3944 68.2392 82.3845 68.2167L82.383 68.2046C82.3817 68.1945 82.3807 68.1903 82.3796 68.1843C82.3801 68.1781 82.3809 68.1713 82.3817 68.1648C82.3878 68.1452 82.3916 68.1247 82.3932 68.1038L82.3966 68.0984C82.4096 68.0766 82.4209 68.051 82.4332 68.0283C82.368 68.1485 82.4588 68.015 82.4655 67.9981C82.4667 67.9952 82.4647 67.9968 82.4652 67.9948C82.4678 67.993 82.467 67.9942 82.4702 67.9919C82.4904 67.9775 82.5096 67.9614 82.5301 67.9476C82.5546 67.9311 82.6509 67.8979 82.551 67.9326C82.5737 67.9247 82.5955 67.9148 82.6184 67.9075C82.6226 67.9062 82.6562 67.9005 82.6743 67.8965C82.6903 67.8961 82.7057 67.8955 82.7073 67.8955C82.7148 67.8956 82.7223 67.8967 82.7298 67.8971C82.7132 67.8998 82.7867 67.9191 82.8085 67.9232C82.8116 67.9262 82.8132 67.9281 82.8175 67.9319C82.836 67.9482 82.8584 67.9628 82.8779 67.978C82.7908 67.9098 82.879 67.9835 82.8957 68.0037C82.9056 68.0157 82.9148 68.0286 82.9241 68.0413C82.9327 68.0534 82.9405 68.0663 82.9473 68.0799C82.9616 68.1116 82.9768 68.1437 82.9918 68.175L82.996 68.183C82.9959 68.184 82.9958 68.185 82.9958 68.1861C83.0036 68.2367 83.0152 68.2864 83.0303 68.3345C83.031 68.3386 83.0316 68.3427 83.032 68.3469C83.0334 68.3746 83.0353 68.4023 83.0354 68.4302L83.0352 68.4358C82.9658 68.392 82.8889 68.3687 82.8107 68.3681C82.7325 68.3674 82.6553 68.3893 82.5854 68.4319Z" fill="#E6E6E6"/>
<path d="M82.5986 44.3906L82.5972 44.3913L82.6 44.3906H82.5986Z" fill="#E6E6E6"/>
<path d="M82.6021 44.3906L82.5996 44.391C82.6027 44.3913 82.6016 44.3908 82.6021 44.3906Z" fill="#E6E6E6"/>
<path d="M82.6016 44.3906C82.6043 44.3915 82.6017 44.3913 82.6011 44.3916L82.6016 44.3906Z" fill="#E6E6E6"/>
<path d="M82.6001 44.3896L82.6021 44.3906L82.6001 44.3896Z" fill="#E6E6E6"/>
<path d="M101.87 50.6689C101.662 50.2218 101.33 49.8786 100.933 49.7004C100.536 49.5222 100.1 49.5204 99.7017 49.6954C99.5039 49.783 99.3226 49.9178 99.1685 50.0919C99.0144 50.266 98.8906 50.4758 98.8045 50.7089C98.7873 50.7584 98.7772 50.8105 98.7631 50.8613C98.7436 50.8995 98.7201 50.9341 98.7027 50.9741C98.516 51.4253 98.4649 51.9413 98.5582 52.4333C98.6514 52.9252 98.8831 53.3623 99.2134 53.6693C99.5437 53.9763 99.952 54.134 100.368 54.1151C100.784 54.0963 101.181 53.9021 101.492 53.5661C101.818 53.2082 102.033 52.7256 102.102 52.1985C102.171 51.6714 102.089 51.1316 101.87 50.6689ZM100.742 51.5966C100.746 51.6242 100.744 51.6495 100.742 51.5966V51.5966ZM100.627 51.2804C100.623 51.2742 100.624 51.2749 100.627 51.2804V51.2804ZM100.122 51.5268C100.115 51.5142 100.115 51.5121 100.122 51.5268V51.5268ZM100.242 51.65C100.27 51.6618 100.259 51.6593 100.242 51.65V51.65ZM100.295 51.6809L100.307 51.6744C100.304 51.6747 100.301 51.674 100.299 51.6723L100.299 51.6723L100.308 51.6737L100.31 51.6727L100.305 51.6712C100.31 51.671 100.31 51.6718 100.31 51.6727C100.364 51.6429 100.328 51.6572 100.297 51.6689L100.295 51.6683C100.275 51.6564 100.254 51.6482 100.233 51.6443C100.231 51.6429 100.228 51.6419 100.227 51.6405C100.21 51.6256 100.122 51.543 100.203 51.6296C100.186 51.6108 100.168 51.5922 100.152 51.5719C100.142 51.5598 100.133 51.5466 100.125 51.5325C100.115 51.5104 100.104 51.4882 100.094 51.4657L100.093 51.4536C100.092 51.4435 100.091 51.4394 100.09 51.4333C100.09 51.4271 100.091 51.4204 100.092 51.4139C100.098 51.3942 100.102 51.3737 100.103 51.3528L100.107 51.3475C100.12 51.3256 100.131 51.3 100.143 51.2773C100.078 51.3975 100.169 51.264 100.176 51.2471C100.177 51.2442 100.175 51.2458 100.175 51.2438C100.178 51.242 100.177 51.2432 100.18 51.241C100.2 51.2265 100.22 51.2104 100.24 51.1966C100.265 51.1802 100.361 51.147 100.261 51.1816C100.284 51.1738 100.305 51.1638 100.328 51.1566C100.333 51.1552 100.366 51.1495 100.384 51.1456C100.4 51.1451 100.416 51.1445 100.417 51.1445C100.425 51.1446 100.432 51.1457 100.44 51.1462C100.423 51.1488 100.497 51.1681 100.518 51.1722C100.522 51.1752 100.523 51.1771 100.528 51.1809C100.546 51.1973 100.568 51.2118 100.588 51.2271C100.501 51.1588 100.589 51.2325 100.606 51.2527C100.616 51.2647 100.625 51.2776 100.634 51.2903C100.643 51.3024 100.65 51.3153 100.657 51.3289C100.672 51.3606 100.687 51.3928 100.702 51.424L100.706 51.432C100.706 51.433 100.706 51.4341 100.706 51.4351C100.714 51.4857 100.725 51.5354 100.74 51.5836C100.741 51.5876 100.742 51.5918 100.742 51.5959C100.743 51.6237 100.745 51.6513 100.745 51.6792L100.745 51.6848C100.676 51.641 100.599 51.6178 100.521 51.6171C100.442 51.6164 100.365 51.6383 100.295 51.6809Z" fill="#E6E6E6"/>
<path d="M100.309 51.6738L100.308 51.6745L100.31 51.6738H100.309Z" fill="#E6E6E6"/>
<path d="M100.311 51.6729L100.313 51.6739L100.311 51.6729Z" fill="#E6E6E6"/>
<path d="M100.312 51.6729C100.314 51.6737 100.312 51.6735 100.311 51.6738L100.312 51.6729Z" fill="#E6E6E6"/>
<path d="M100.312 51.6738L100.31 51.6742C100.313 51.6746 100.312 51.674 100.312 51.6738Z" fill="#E6E6E6"/>
<path d="M95.4557 68.3613L81.4987 69.3023C81.42 69.3077 81.3426 69.2762 81.2825 69.2143C81.2224 69.1525 81.1842 69.0651 81.1756 68.97C81.1671 68.875 81.1889 68.7796 81.2367 68.7036C81.2844 68.6275 81.3543 68.5765 81.4321 68.5612L95.6976 65.7451L95.4557 68.3613Z" fill="#3F3D56"/>
<path d="M113.193 106.057L118.452 95.3223L122.34 97.5496C122.34 97.5496 115.641 107.699 115.428 107.991C115.519 108.484 115.485 108.999 115.33 109.469C115.174 109.938 114.905 110.339 114.558 110.618C114.211 110.898 113.802 111.043 113.385 111.035C112.968 111.026 112.564 110.865 112.224 110.571C111.885 110.277 111.627 109.866 111.485 109.39C111.343 108.915 111.323 108.399 111.428 107.909C111.533 107.42 111.758 106.981 112.073 106.65C112.388 106.319 112.779 106.112 113.193 106.057Z" fill="#FFB6B6"/>
<path d="M115.381 81.1211L123.902 86.5143C124.434 86.9797 124.881 87.5747 125.213 88.2614C125.545 88.9481 125.756 89.7114 125.831 90.5023C125.906 91.2933 125.844 92.0946 125.65 92.8549C125.455 93.6153 125.132 94.318 124.7 94.9182L118.826 103.093L116.267 98.8861L118.239 93.8828L114.42 92.6611L115.381 81.1211Z" fill="#3364FF"/>
<path d="M91.0978 68.5372L90.138 80.9702L85.8389 80.9789C85.8389 80.9789 88.3054 68.3264 88.3951 67.9517C88.1382 67.5535 87.9871 67.0701 87.9616 66.5654C87.9362 66.0607 88.0376 65.5586 88.2526 65.1254C88.4675 64.6922 88.7858 64.3483 89.1653 64.1393C89.5448 63.9303 89.9677 63.866 90.378 63.9549C90.7883 64.0438 91.1667 64.2817 91.4631 64.6372C91.7595 64.9926 91.96 65.4489 92.038 65.9455C92.116 66.4422 92.0679 66.9559 91.9 67.4187C91.7321 67.8815 91.4524 68.2715 91.0978 68.5373V68.5372Z" fill="#FFB6B6"/>
<path d="M99.6556 93.9619L89.7606 91.7605C85.5938 91.1527 83.8838 87.8267 84.6356 84.5827L87.0552 74.1426L90.8536 76.613L90.839 82.159L96.1559 81.2772L99.6556 93.9619Z" fill="#3364FF"/>
<path d="M95.6049 179.884H92.8842L91.5898 167.152H95.6055L95.6049 179.884Z" fill="#FFB6B6"/>
<path d="M95.7008 183.328L87.334 183.327V183.199C87.334 182.151 87.6772 181.146 88.2879 180.405C88.8986 179.665 89.7269 179.248 90.5906 179.248H90.5908L92.1191 177.842L94.9706 179.249L95.7009 179.249L95.7008 183.328Z" fill="#2F2E41"/>
<path d="M114.857 179.884H117.577L118.872 167.152H114.856L114.857 179.884Z" fill="#FFB6B6"/>
<path d="M114.76 183.328L123.127 183.327V183.199C123.127 182.151 122.784 181.146 122.173 180.405C121.563 179.665 120.734 179.248 119.871 179.248H119.87L118.342 177.842L115.491 179.249L114.76 179.249L114.76 183.328Z" fill="#2F2E41"/>
<path d="M91.4701 157.797C91.5103 157.07 91.8297 153.053 91.8297 153.053L92.595 144.533L93.9438 121.948L95.1461 116.012L101.097 118.824L105.926 116.016L111.666 118.242L116.135 120.275C116.135 120.275 116.142 121.145 116.177 122.196C116.223 123.573 116.303 125.26 116.494 125.699C116.814 126.474 116.734 130.635 116.734 130.635C116.734 130.635 117.051 139.102 117.451 140.03C117.851 140.959 117.931 142.892 117.811 143.28C117.69 143.667 118.211 153.835 118.211 153.835C118.211 153.835 119.546 171.828 118.708 174.542C117.87 177.255 114.704 175.478 114.704 175.478C114.704 175.478 114.857 174.753 113.938 174.412C113.02 174.071 110.223 148.557 110.223 148.557C110.223 148.557 109.703 143.326 109.224 141.827C108.746 140.327 108.306 136.115 108.306 136.115C108.306 136.115 105.352 129.143 105.314 127.593C105.314 127.593 104.927 126.142 104.562 127.739C104.197 129.336 103.119 133.16 103.119 133.16L102.069 137.858L100.833 144.876L100.033 150.785C100.033 150.785 98.8358 158.628 98.6445 158.967C98.4532 159.305 98.6445 166.47 98.6445 166.47C98.6445 166.47 97.7185 172.572 96.4099 173.637C95.1013 174.702 91.6342 173.654 91.6342 173.654C91.6342 173.654 91.4299 158.523 91.4701 157.797Z" fill="#2F2E41"/>
<path d="M95.919 96.9102L95.1586 108.861L94.0161 110.295C93.9131 110.424 93.8326 110.578 93.7796 110.746C93.7265 110.913 93.702 111.093 93.7074 111.272C93.7127 111.452 93.748 111.629 93.8109 111.791C93.8739 111.954 93.9633 112.1 94.0738 112.22L93.4443 113.529L93.2215 117.655C93.1579 117.976 93.1536 118.31 93.2088 118.633C93.2639 118.957 93.3773 119.261 93.5407 119.525C93.7041 119.789 93.9135 120.006 94.1541 120.161C94.3946 120.315 94.6603 120.403 94.9321 120.419L114.633 121.542C114.903 121.557 115.173 121.5 115.423 121.375C115.674 121.25 115.898 121.06 116.081 120.818C116.264 120.577 116.401 120.289 116.483 119.976C116.564 119.663 116.588 119.332 116.552 119.006L114.877 103.707V102.563L114.127 100.354L114.512 92.9533L115.409 81.2065L110.197 79.5734L107.372 77.2148L102.462 77.3097L99.4836 80.2775L95.5118 81.0321L92.5081 81.7564L92.1255 82.7651L92.8908 82.5634L95.6645 95.6876L95.919 96.9102Z" fill="#3364FF"/>
<path d="M104.807 75.6132C108.001 75.6132 110.59 72.4722 110.59 68.5976C110.59 64.723 108.001 61.582 104.807 61.582C101.613 61.582 99.0239 64.723 99.0239 68.5976C99.0239 72.4722 101.613 75.6132 104.807 75.6132Z" fill="#FFB6B6"/>
<path d="M103.413 75.1606L107.591 74.902C108.127 74.8689 108.711 74.8116 109.1 74.3646C109.31 74.0886 109.471 73.7639 109.574 73.4101C109.96 72.3217 110.347 71.2331 110.723 70.1396C111.244 68.627 111.755 67.0298 111.622 65.3986C111.591 64.6536 111.333 63.9491 110.899 63.4209C110.678 63.1664 110.393 63.0082 110.089 62.9708C109.786 62.9335 109.48 63.0193 109.221 63.2147C109.157 62.6987 108.997 62.2073 108.753 61.7775C108.509 61.3477 108.187 60.9909 107.813 60.7339C107.057 60.2272 106.193 60.0051 105.333 60.0961C104.084 60.1937 102.892 60.7637 101.924 61.7259C101.652 62.0306 101.361 62.31 101.054 62.5619C100.9 62.6871 100.726 62.7727 100.544 62.8137C100.361 62.8546 100.174 62.85 99.9928 62.8001C99.8136 62.742 99.6577 62.6071 99.5541 62.4204C99.4504 62.2337 99.406 62.0078 99.429 61.7845C99.1347 62.0514 98.933 62.4417 98.8631 62.8793C98.7932 63.3169 98.8602 63.7704 99.051 64.1513C98.8341 64.2616 98.5973 64.3019 98.3638 64.2684C98.1303 64.2348 97.9078 64.1286 97.7181 63.96C97.5149 64.0824 97.335 64.2549 97.1898 64.4665C97.0447 64.6781 96.9376 64.9241 96.8754 65.1888C96.8132 65.4535 96.7973 65.731 96.8286 66.0036C96.8599 66.2762 96.9378 66.5379 97.0573 66.7718C97.1768 67.0058 97.3353 67.2069 97.5225 67.3623C97.7098 67.5177 97.9218 67.624 98.1448 67.6742C98.3679 67.7245 98.5972 67.7177 98.8179 67.6543C99.0387 67.5909 99.2462 67.4722 99.4269 67.3059C99.6805 67.7368 99.5861 68.3223 99.5531 68.8503C99.52 69.3782 99.6367 70.0343 100.056 70.1802C100.623 70.3774 101.083 69.451 101.673 69.4609C101.818 69.4752 101.959 69.533 102.081 69.6289C102.204 69.7248 102.305 69.856 102.376 70.0109C102.515 70.322 102.611 70.6591 102.658 71.0083L103.413 75.1319" fill="#2F2E41"/>
<path d="M266.329 138.242C266.329 137.156 266.028 136.274 265.659 136.272H164.998C164.627 136.274 164.328 137.156 164.327 138.242V182.962C164.327 183.063 164.296 183.16 164.24 183.235C164.184 183.31 164.107 183.356 164.024 183.366C163.754 183.398 163.484 183.427 163.214 183.454C163.207 183.454 163.201 183.456 163.194 183.456C163.047 183.472 162.9 183.484 162.753 183.499H162.751C162.675 183.329 162.601 183.158 162.527 182.985C162.502 182.927 162.489 182.863 162.489 182.797V135.686C162.489 135.386 162.499 135.084 162.515 134.786C162.539 134.377 162.581 133.97 162.641 133.566C162.923 131.683 163.561 130.408 164.286 130.404H266.369C266.475 130.405 266.58 130.432 266.677 130.483C266.819 130.56 266.948 130.669 267.056 130.806C267.202 130.99 267.328 131.198 267.429 131.424C267.844 132.429 268.084 133.529 268.132 134.652C268.132 134.665 268.134 134.677 268.134 134.689C268.157 135.017 268.169 135.352 268.167 135.686L268.19 140.03L268.205 142.62L268.251 150.747L268.267 153.634L268.341 183.266C268.341 183.373 268.306 183.476 268.243 183.552C268.18 183.628 268.095 183.671 268.007 183.671H266.663C266.575 183.671 266.49 183.628 266.427 183.552C266.364 183.476 266.329 183.373 266.329 183.266V138.242Z" fill="#E6E6E6"/>
<path d="M238.976 110.08H228.13C227.977 110.08 227.83 110.155 227.721 110.286C227.613 110.418 227.552 110.597 227.552 110.783V131.569H239.556V110.783C239.556 110.691 239.541 110.599 239.512 110.514C239.483 110.429 239.44 110.351 239.386 110.286C239.332 110.221 239.269 110.169 239.198 110.133C239.128 110.098 239.053 110.08 238.976 110.08ZM233.59 121.89C233.251 121.888 232.926 121.724 232.686 121.433C232.446 121.142 232.311 120.748 232.309 120.337V117.939C232.309 117.527 232.444 117.132 232.684 116.84C232.924 116.549 233.25 116.385 233.59 116.385C233.929 116.385 234.255 116.549 234.495 116.84C234.736 117.132 234.871 117.527 234.871 117.939V120.337C234.869 120.748 234.734 121.142 234.494 121.433C234.254 121.724 233.929 121.888 233.59 121.89Z" fill="#CCCCCC"/>
<path d="M227.515 130.904V132.91C227.515 133.014 227.549 133.113 227.61 133.187C227.671 133.26 227.753 133.302 227.838 133.302H239.27C239.356 133.301 239.438 133.26 239.498 133.186C239.559 133.113 239.593 133.014 239.593 132.91V130.904H227.515Z" fill="#3F3D56"/>
<path d="M256.937 77.6416H210.573C210.175 77.6424 209.793 77.8347 209.511 78.1764C209.229 78.5181 209.071 78.9813 209.07 79.4645V117.419C209.071 117.902 209.229 118.366 209.511 118.707C209.793 119.049 210.175 119.241 210.573 119.242H256.937C257.335 119.241 257.717 119.049 257.999 118.707C258.281 118.366 258.439 117.902 258.44 117.419V79.4645C258.439 78.9813 258.281 78.5181 257.999 78.1764C257.717 77.8347 257.335 77.6424 256.937 77.6416Z" fill="#E6E6E6"/>
<path d="M256.55 78.959H210.96C210.747 78.9595 210.543 79.0627 210.392 79.2459C210.241 79.429 210.157 79.6772 210.157 79.9359V116.95C210.157 117.208 210.242 117.456 210.393 117.638C210.543 117.821 210.747 117.924 210.96 117.924H256.55C256.763 117.924 256.967 117.821 257.118 117.638C257.269 117.456 257.353 117.208 257.354 116.95V79.9359C257.354 79.6772 257.269 79.429 257.118 79.2459C256.968 79.0627 256.763 78.9595 256.55 78.959Z" fill="white"/>
<path d="M247.67 134H220.547C220.473 134 220.399 133.98 220.332 133.941C220.265 133.902 220.206 133.846 220.159 133.776C220.113 133.706 220.079 133.624 220.062 133.537C220.044 133.449 220.043 133.358 220.059 133.27L220.479 130.845C220.503 130.709 220.565 130.588 220.654 130.5C220.742 130.413 220.853 130.365 220.968 130.364H247.249C247.364 130.365 247.475 130.413 247.563 130.5C247.652 130.588 247.714 130.709 247.738 130.845L248.158 133.27C248.174 133.358 248.173 133.449 248.155 133.537C248.138 133.624 248.104 133.706 248.058 133.776C248.011 133.846 247.952 133.902 247.885 133.941C247.818 133.98 247.744 134 247.67 134Z" fill="#CCCCCC"/>
<path d="M221.849 130.801H221.307C221.226 130.801 221.16 130.88 221.16 130.979V131.231C221.16 131.329 221.226 131.409 221.307 131.409H221.849C221.93 131.409 221.996 131.329 221.996 131.231V130.979C221.996 130.88 221.93 130.801 221.849 130.801Z" fill="#E6E6E6"/>
<path d="M223.52 130.801H222.978C222.897 130.801 222.831 130.88 222.831 130.979V131.231C222.831 131.329 222.897 131.409 222.978 131.409H223.52C223.601 131.409 223.666 131.329 223.666 131.231V130.979C223.666 130.88 223.601 130.801 223.52 130.801Z" fill="#E6E6E6"/>
<path d="M225.19 130.801H224.648C224.567 130.801 224.501 130.88 224.501 130.979V131.231C224.501 131.329 224.567 131.409 224.648 131.409H225.19C225.271 131.409 225.337 131.329 225.337 131.231V130.979C225.337 130.88 225.271 130.801 225.19 130.801Z" fill="#E6E6E6"/>
<path d="M226.861 130.801H226.319C226.238 130.801 226.172 130.88 226.172 130.979V131.231C226.172 131.329 226.238 131.409 226.319 131.409H226.861C226.942 131.409 227.008 131.329 227.008 131.231V130.979C227.008 130.88 226.942 130.801 226.861 130.801Z" fill="#E6E6E6"/>
<path d="M228.532 130.801H227.99C227.909 130.801 227.843 130.88 227.843 130.979V131.231C227.843 131.329 227.909 131.409 227.99 131.409H228.532C228.613 131.409 228.679 131.329 228.679 131.231V130.979C228.679 130.88 228.613 130.801 228.532 130.801Z" fill="#E6E6E6"/>
<path d="M230.203 130.801H229.66C229.579 130.801 229.514 130.88 229.514 130.979V131.231C229.514 131.329 229.579 131.409 229.66 131.409H230.203C230.283 131.409 230.349 131.329 230.349 131.231V130.979C230.349 130.88 230.283 130.801 230.203 130.801Z" fill="#E6E6E6"/>
<path d="M231.873 130.801H231.331C231.25 130.801 231.185 130.88 231.185 130.979V131.231C231.185 131.329 231.25 131.409 231.331 131.409H231.873C231.954 131.409 232.02 131.329 232.02 131.231V130.979C232.02 130.88 231.954 130.801 231.873 130.801Z" fill="#E6E6E6"/>
<path d="M233.544 130.801H233.002C232.921 130.801 232.855 130.88 232.855 130.979V131.231C232.855 131.329 232.921 131.409 233.002 131.409H233.544C233.625 131.409 233.691 131.329 233.691 131.231V130.979C233.691 130.88 233.625 130.801 233.544 130.801Z" fill="#E6E6E6"/>
<path d="M235.215 130.801H234.672C234.591 130.801 234.526 130.88 234.526 130.979V131.231C234.526 131.329 234.591 131.409 234.672 131.409H235.215C235.296 131.409 235.361 131.329 235.361 131.231V130.979C235.361 130.88 235.296 130.801 235.215 130.801Z" fill="#E6E6E6"/>
<path d="M236.886 130.801H236.343C236.262 130.801 236.197 130.88 236.197 130.979V131.231C236.197 131.329 236.262 131.409 236.343 131.409H236.886C236.967 131.409 237.032 131.329 237.032 131.231V130.979C237.032 130.88 236.967 130.801 236.886 130.801Z" fill="#E6E6E6"/>
<path d="M238.557 130.801H238.014C237.933 130.801 237.868 130.88 237.868 130.979V131.231C237.868 131.329 237.933 131.409 238.014 131.409H238.557C238.637 131.409 238.703 131.329 238.703 131.231V130.979C238.703 130.88 238.637 130.801 238.557 130.801Z" fill="#E6E6E6"/>
<path d="M240.227 130.801H239.685C239.604 130.801 239.538 130.88 239.538 130.979V131.231C239.538 131.329 239.604 131.409 239.685 131.409H240.227C240.308 131.409 240.373 131.329 240.373 131.231V130.979C240.373 130.88 240.308 130.801 240.227 130.801Z" fill="#E6E6E6"/>
<path d="M241.898 130.801H241.356C241.275 130.801 241.209 130.88 241.209 130.979V131.231C241.209 131.329 241.275 131.409 241.356 131.409H241.898C241.979 131.409 242.044 131.329 242.044 131.231V130.979C242.044 130.88 241.979 130.801 241.898 130.801Z" fill="#E6E6E6"/>
<path d="M243.569 130.801H243.026C242.946 130.801 242.88 130.88 242.88 130.979V131.231C242.88 131.329 242.946 131.409 243.026 131.409H243.569C243.65 131.409 243.715 131.329 243.715 131.231V130.979C243.715 130.88 243.65 130.801 243.569 130.801Z" fill="#E6E6E6"/>
<path d="M245.24 130.801H244.697C244.616 130.801 244.551 130.88 244.551 130.979V131.231C244.551 131.329 244.616 131.409 244.697 131.409H245.24C245.321 131.409 245.386 131.329 245.386 131.231V130.979C245.386 130.88 245.321 130.801 245.24 130.801Z" fill="#E6E6E6"/>
<path d="M246.91 130.801H246.368C246.287 130.801 246.221 130.88 246.221 130.979V131.231C246.221 131.329 246.287 131.409 246.368 131.409H246.91C246.991 131.409 247.057 131.329 247.057 131.231V130.979C247.057 130.88 246.991 130.801 246.91 130.801Z" fill="#E6E6E6"/>
<path d="M221.829 131.814H221.287C221.206 131.814 221.14 131.894 221.14 131.992V132.245C221.14 132.343 221.206 132.422 221.287 132.422H221.829C221.91 132.422 221.976 132.343 221.976 132.245V131.992C221.976 131.894 221.91 131.814 221.829 131.814Z" fill="#E6E6E6"/>
<path d="M223.5 131.814H222.958C222.877 131.814 222.811 131.894 222.811 131.992V132.245C222.811 132.343 222.877 132.422 222.958 132.422H223.5C223.581 132.422 223.646 132.343 223.646 132.245V131.992C223.646 131.894 223.581 131.814 223.5 131.814Z" fill="#E6E6E6"/>
<path d="M225.171 131.814H224.628C224.548 131.814 224.482 131.894 224.482 131.992V132.245C224.482 132.343 224.548 132.422 224.628 132.422H225.171C225.252 132.422 225.317 132.343 225.317 132.245V131.992C225.317 131.894 225.252 131.814 225.171 131.814Z" fill="#E6E6E6"/>
<path d="M226.841 131.814H226.299C226.218 131.814 226.152 131.894 226.152 131.992V132.245C226.152 132.343 226.218 132.422 226.299 132.422H226.841C226.922 132.422 226.988 132.343 226.988 132.245V131.992C226.988 131.894 226.922 131.814 226.841 131.814Z" fill="#E6E6E6"/>
<path d="M228.512 131.814H227.97C227.889 131.814 227.823 131.894 227.823 131.992V132.245C227.823 132.343 227.889 132.422 227.97 132.422H228.512C228.593 132.422 228.659 132.343 228.659 132.245V131.992C228.659 131.894 228.593 131.814 228.512 131.814Z" fill="#E6E6E6"/>
<path d="M230.183 131.814H229.641C229.56 131.814 229.494 131.894 229.494 131.992V132.245C229.494 132.343 229.56 132.422 229.641 132.422H230.183C230.264 132.422 230.33 132.343 230.33 132.245V131.992C230.33 131.894 230.264 131.814 230.183 131.814Z" fill="#E6E6E6"/>
<path d="M231.854 131.814H231.312C231.231 131.814 231.165 131.894 231.165 131.992V132.245C231.165 132.343 231.231 132.422 231.312 132.422H231.854C231.935 132.422 232 132.343 232 132.245V131.992C232 131.894 231.935 131.814 231.854 131.814Z" fill="#E6E6E6"/>
<path d="M233.524 131.814H232.982C232.901 131.814 232.835 131.894 232.835 131.992V132.245C232.835 132.343 232.901 132.422 232.982 132.422H233.524C233.605 132.422 233.671 132.343 233.671 132.245V131.992C233.671 131.894 233.605 131.814 233.524 131.814Z" fill="#E6E6E6"/>
<path d="M235.195 131.814H234.653C234.572 131.814 234.506 131.894 234.506 131.992V132.245C234.506 132.343 234.572 132.422 234.653 132.422H235.195C235.276 132.422 235.342 132.343 235.342 132.245V131.992C235.342 131.894 235.276 131.814 235.195 131.814Z" fill="#E6E6E6"/>
<path d="M236.866 131.814H236.324C236.243 131.814 236.177 131.894 236.177 131.992V132.245C236.177 132.343 236.243 132.422 236.324 132.422H236.866C236.947 132.422 237.013 132.343 237.013 132.245V131.992C237.013 131.894 236.947 131.814 236.866 131.814Z" fill="#E6E6E6"/>
<path d="M238.536 131.814H237.994C237.913 131.814 237.848 131.894 237.848 131.992V132.245C237.848 132.343 237.913 132.422 237.994 132.422H238.536C238.617 132.422 238.683 132.343 238.683 132.245V131.992C238.683 131.894 238.617 131.814 238.536 131.814Z" fill="#E6E6E6"/>
<path d="M240.207 131.814H239.665C239.584 131.814 239.519 131.894 239.519 131.992V132.245C239.519 132.343 239.584 132.422 239.665 132.422H240.207C240.288 132.422 240.354 132.343 240.354 132.245V131.992C240.354 131.894 240.288 131.814 240.207 131.814Z" fill="#E6E6E6"/>
<path d="M241.878 131.814H241.336C241.255 131.814 241.189 131.894 241.189 131.992V132.245C241.189 132.343 241.255 132.422 241.336 132.422H241.878C241.959 132.422 242.025 132.343 242.025 132.245V131.992C242.025 131.894 241.959 131.814 241.878 131.814Z" fill="#E6E6E6"/>
<path d="M243.549 131.814H243.006C242.925 131.814 242.86 131.894 242.86 131.992V132.245C242.86 132.343 242.925 132.422 243.006 132.422H243.549C243.63 132.422 243.695 132.343 243.695 132.245V131.992C243.695 131.894 243.63 131.814 243.549 131.814Z" fill="#E6E6E6"/>
<path d="M245.22 131.814H244.677C244.596 131.814 244.531 131.894 244.531 131.992V132.245C244.531 132.343 244.596 132.422 244.677 132.422H245.22C245.301 132.422 245.366 132.343 245.366 132.245V131.992C245.366 131.894 245.301 131.814 245.22 131.814Z" fill="#E6E6E6"/>
<path d="M246.891 131.814H246.348C246.267 131.814 246.202 131.894 246.202 131.992V132.245C246.202 132.343 246.267 132.422 246.348 132.422H246.891C246.971 132.422 247.037 132.343 247.037 132.245V131.992C247.037 131.894 246.971 131.814 246.891 131.814Z" fill="#E6E6E6"/>
<path d="M235.697 133.03H229.307C229.226 133.03 229.16 133.11 229.16 133.208V133.461C229.16 133.559 229.226 133.638 229.307 133.638H235.697C235.778 133.638 235.843 133.559 235.843 133.461V133.208C235.843 133.11 235.778 133.03 235.697 133.03Z" fill="#E6E6E6"/>
<path d="M254.259 84.0581H211.6C211.556 84.0569 211.514 84.0347 211.483 83.9962C211.452 83.9577 211.435 83.9061 211.435 83.8523C211.435 83.7985 211.452 83.7468 211.483 83.7083C211.514 83.6699 211.556 83.6477 211.6 83.6465H254.259C254.303 83.6477 254.345 83.6699 254.376 83.7083C254.407 83.7468 254.424 83.7985 254.424 83.8523C254.424 83.9061 254.407 83.9577 254.376 83.9962C254.345 84.0347 254.303 84.0569 254.259 84.0581Z" fill="#CACACA"/>
<path d="M214.504 82.5957C215.053 82.5957 215.498 82.0437 215.498 81.3628C215.498 80.6819 215.053 80.1299 214.504 80.1299C213.955 80.1299 213.51 80.6819 213.51 81.3628C213.51 82.0437 213.955 82.5957 214.504 82.5957Z" fill="#CCCCCC"/>
<path d="M217.939 82.5957C218.488 82.5957 218.933 82.0437 218.933 81.3628C218.933 80.6819 218.488 80.1299 217.939 80.1299C217.389 80.1299 216.944 80.6819 216.944 81.3628C216.944 82.0437 217.389 82.5957 217.939 82.5957Z" fill="#CCCCCC"/>
<path d="M221.373 82.5957C221.922 82.5957 222.367 82.0437 222.367 81.3628C222.367 80.6819 221.922 80.1299 221.373 80.1299C220.824 80.1299 220.379 80.6819 220.379 81.3628C220.379 82.0437 220.824 82.5957 221.373 82.5957Z" fill="#CCCCCC"/>
<path d="M252.191 80.4355H249.751C249.703 80.4367 249.657 80.4608 249.623 80.5027C249.589 80.5446 249.57 80.601 249.57 80.6596C249.57 80.7183 249.589 80.7747 249.623 80.8166C249.657 80.8585 249.703 80.8826 249.751 80.8837H252.191C252.239 80.8826 252.285 80.8585 252.319 80.8166C252.353 80.7747 252.372 80.7183 252.372 80.6596C252.372 80.601 252.353 80.5446 252.319 80.5027C252.285 80.4608 252.239 80.4367 252.191 80.4355H252.191Z" fill="#CCCCCC"/>
<path d="M252.19 81.2773H249.751C249.703 81.2785 249.656 81.3026 249.623 81.3445C249.589 81.3864 249.57 81.4428 249.57 81.5014C249.57 81.5601 249.589 81.6164 249.623 81.6583C249.656 81.7002 249.703 81.7243 249.751 81.7255H252.19C252.239 81.7243 252.285 81.7002 252.319 81.6583C252.353 81.6164 252.372 81.5601 252.372 81.5014C252.372 81.4428 252.353 81.3864 252.319 81.3445C252.285 81.3026 252.239 81.2785 252.19 81.2773H252.19Z" fill="#CCCCCC"/>
<path d="M252.191 82.1172H249.751C249.703 82.1183 249.657 82.1425 249.623 82.1844C249.589 82.2263 249.57 82.2826 249.57 82.3413C249.57 82.3999 249.589 82.4563 249.623 82.4982C249.657 82.5401 249.703 82.5642 249.751 82.5654H252.191C252.239 82.5642 252.285 82.5401 252.319 82.4982C252.353 82.4563 252.372 82.3999 252.372 82.3413C252.372 82.2826 252.353 82.2263 252.319 82.1844C252.285 82.1425 252.239 82.1183 252.191 82.1172H252.191Z" fill="#CCCCCC"/>
<path d="M236.374 95.2705H231.043C230.643 95.2705 230.318 95.6642 230.318 96.1499C230.318 96.6356 230.643 97.0294 231.043 97.0294H236.374C236.774 97.0294 237.099 96.6356 237.099 96.1499C237.099 95.6642 236.774 95.2705 236.374 95.2705Z" fill="#3364FF"/>
<path d="M239.817 98.7881H227.6C227.2 98.7881 226.875 99.1818 226.875 99.6675C226.875 100.153 227.2 100.547 227.6 100.547H239.817C240.218 100.547 240.542 100.153 240.542 99.6675C240.542 99.1818 240.218 98.7881 239.817 98.7881Z" fill="#E6E6E6"/>
<path d="M239.817 102.306H227.6C227.2 102.306 226.875 102.699 226.875 103.185C226.875 103.671 227.2 104.065 227.6 104.065H239.817C240.218 104.065 240.542 103.671 240.542 103.185C240.542 102.699 240.218 102.306 239.817 102.306Z" fill="#E6E6E6"/>
<path d="M157.508 157.109L155.051 155.683L158.426 143.223L162.053 145.327L157.508 157.109Z" fill="#FFB6B6"/>
<path d="M173.982 155.099C173.803 155.235 173.625 155.369 173.444 155.502C173.085 155.769 172.722 156.032 172.359 156.29C172.177 156.42 171.993 156.549 171.811 156.676V156.682L171.8 156.685L171.796 156.687L171.518 156.77L171.119 155.491L170.935 154.902L170.675 154.068L170.199 152.542L167.69 144.506L171.59 143.339L171.737 144.064H171.738L171.811 144.423L173.173 151.127L173.451 152.498L173.46 152.54L173.628 153.359L173.773 154.068L173.933 154.861L173.982 155.099Z" fill="#FFB6B6"/>
<path d="M197.25 126.88C197.003 127.361 196.75 127.841 196.496 128.316C196.023 129.201 195.537 130.072 195.039 130.93C195.039 130.933 195.037 130.933 195.036 130.935C194.745 131.261 194.424 131.546 194.079 131.782C194.065 131.795 194.048 131.804 194.034 131.815C193.78 131.985 193.509 132.117 193.229 132.207C193.128 132.238 193.025 132.268 192.924 132.299C192.559 132.404 192.198 132.494 191.839 132.573C191.2 132.71 190.568 132.809 189.94 132.87C189.89 132.877 189.839 132.881 189.789 132.886C187.206 133.116 184.691 132.746 182.067 132.139C180.771 131.841 179.448 131.484 178.078 131.114C177.63 130.992 177.181 130.871 176.726 130.751C176.692 130.742 176.656 130.731 176.62 130.722C175.97 130.549 175.309 130.379 174.632 130.21C173.78 129.998 172.901 129.792 171.988 129.597L172.053 131.158C172.107 132.359 172.313 133.543 172.663 134.668C173.053 136.052 173.362 137.147 172.71 139.426L172.396 140.53C172.559 141.078 172.615 141.664 172.559 142.243C172.504 142.821 172.339 143.376 172.077 143.864L172.013 143.98L174.632 152.019L174.802 152.54H173.461L171.811 152.542H169.015L164.981 142.724L164.788 142.255V142.231L165.205 123.363C165.21 123.197 165.221 123.028 165.239 122.862C165.313 122.105 165.51 121.374 165.819 120.711C166.128 120.048 166.543 119.466 167.039 118.999C167.514 118.548 168.059 118.216 168.641 118.023C169.224 117.83 169.832 117.779 170.43 117.874L171.811 118.09L174.632 118.533L176.62 118.846L176.659 118.852L182.52 119.772L182.941 117.692L183.018 117.657L185.486 116.56L194.019 112.765L194.041 112.756L194.602 112.507L194.669 112.638C194.689 112.678 194.709 112.717 194.727 112.756C195.282 113.963 195.733 115.235 196.075 116.553C196.65 118.706 197.123 120.897 197.492 123.116C197.508 123.212 197.523 123.299 197.535 123.378L197.541 123.402C197.546 123.44 197.55 123.464 197.552 123.47C197.721 124.618 197.616 125.801 197.25 126.88Z" fill="#2F2E41"/>
<path d="M197.61 119.926C197.583 119.786 197.549 119.644 197.513 119.506C197.226 118.461 196.892 117.436 196.513 116.436C196.087 115.297 195.576 114.078 194.968 112.757C194.674 112.118 194.357 111.453 194.018 110.763C193.849 110.417 193.673 110.064 193.49 109.705C193.482 109.688 193.475 109.672 193.466 109.657L193.414 109.552L184.97 110.922L181.826 111.433L181.638 113.333L181.593 113.804C181.591 113.804 181.591 113.804 181.593 113.806L181.467 115.089V115.092L181.299 116.786L181.285 116.784L176.619 116.051L171.81 115.295L169.227 114.89C168.629 114.795 168.021 114.846 167.438 115.039C166.856 115.233 166.311 115.564 165.836 116.016C165.34 116.482 164.925 117.064 164.616 117.727C164.307 118.39 164.11 119.122 164.036 119.878C164.02 120.031 164.009 120.189 164.004 120.344L161.567 127.349C160.109 131.538 159.18 135.97 158.813 140.496L157.026 147.426L157.28 147.454L161.067 147.881L162.067 147.995L164.269 144.095C164.52 143.651 164.758 143.193 164.98 142.725C165.346 141.959 165.671 141.166 165.953 140.351L170.716 126.6C171.085 126.677 171.449 126.75 171.81 126.819C173.48 127.148 175.083 127.415 176.619 127.623C181.613 128.299 185.938 128.352 189.788 127.778C190.869 127.618 191.914 127.408 192.923 127.148C193.293 127.053 193.658 126.952 194.018 126.843C194.103 126.819 194.186 126.795 194.269 126.769C195.015 126.535 195.701 126.079 196.264 125.441C196.827 124.803 197.249 124.004 197.491 123.117C197.781 122.089 197.822 120.982 197.61 119.926Z" fill="#2F2E41"/>
<path d="M158.293 155.074L155.634 153.528L155.217 153.285L154.551 155.269L149.902 156.51C149.672 156.572 149.464 156.72 149.309 156.935C149.154 157.15 149.059 157.419 149.039 157.703C149.019 157.988 149.074 158.272 149.197 158.516C149.319 158.76 149.503 158.949 149.721 159.057L154.264 161.306L155.706 159.731L155.353 161.844L157.064 162.692L158.939 155.451L158.293 155.074Z" fill="#2F2E41"/>
<path d="M174.632 152.019L174.802 152.54H174.632V152.019Z" fill="#2F2E41"/>
<path d="M173.706 152.651L170.92 153.822L170.483 154.005L171.16 155.983L168.577 160.834C168.449 161.074 168.387 161.357 168.401 161.642C168.416 161.927 168.504 162.199 168.655 162.418C168.806 162.638 169.01 162.793 169.239 162.861C169.467 162.929 169.708 162.907 169.925 162.798L174.458 160.518L174.569 158.168L175.544 159.972L177.251 159.113L174.384 152.367L173.706 152.651Z" fill="#2F2E41"/>
<path d="M156.798 80.2021C156.93 80.5142 157.117 80.7875 157.345 81.0026C157.574 81.2176 157.838 81.3693 158.121 81.4469C158.403 81.5245 158.695 81.5261 158.978 81.4516C159.261 81.3771 159.526 81.2283 159.757 81.0157L165.615 85.7333L165.626 81.3008L160.061 77.5004C159.741 77.0551 159.298 76.7676 158.815 76.6925C158.332 76.6173 157.843 76.7597 157.44 77.0928C157.038 77.4258 156.75 77.9262 156.632 78.4993C156.514 79.0723 156.573 79.6782 156.798 80.202V80.2021Z" fill="#FFB6B6"/>
<path d="M161.174 82.2505L163.907 78.4785L175.036 86.4931L189.788 84.8542C190.517 84.7732 191.252 84.888 191.94 85.1903C192.629 85.4926 193.254 85.9752 193.772 86.6036C194.289 87.232 194.686 87.991 194.935 88.8265C195.183 89.6621 195.277 90.5538 195.21 91.4383C195.087 93.0358 194.446 94.5086 193.428 95.5337C192.411 96.5588 191.1 97.0525 189.783 96.9063L173.168 95.0407L161.174 82.2505Z" fill="#CCCCCC"/>
<path d="M195.413 82.3093L195.388 82.2702C193.312 82.0218 191.222 82.5091 189.371 83.6729C187.519 84.8368 185.986 86.6272 184.956 88.8272L183.704 91.5026C179.654 97.5084 182.597 101.65 182.773 102.266L181.368 110.129L181.683 112.76L181.84 113.541L197.885 123.712C198.799 118.388 197.916 113.85 194.588 110.384L197.808 98.2298C198.522 95.5424 198.677 92.6824 198.259 89.9047C197.841 87.127 196.864 84.5177 195.413 82.3093Z" fill="#CCCCCC"/>
<path d="M182.655 141.358H177.509C177.225 141.357 176.952 141.233 176.738 141.008C176.525 140.783 176.385 140.472 176.345 140.131C176.027 137.295 176.027 134.419 176.345 131.582C176.385 131.246 176.521 130.938 176.731 130.713C176.94 130.488 177.209 130.362 177.489 130.356C179.108 129.475 180.852 129.475 182.673 130.356C182.843 130.358 183.01 130.406 183.162 130.495C183.315 130.585 183.45 130.714 183.557 130.873C183.669 131.039 183.749 131.233 183.792 131.441C183.834 131.648 183.838 131.865 183.803 132.075C183.389 134.571 183.389 137.142 183.803 139.638C183.838 139.848 183.834 140.065 183.792 140.273C183.749 140.481 183.669 140.674 183.557 140.84C183.448 141.002 183.31 141.133 183.154 141.222C182.998 141.312 182.828 141.358 182.655 141.358Z" fill="#3364FF"/>
<path d="M182.116 133.615H177.784C177.749 133.615 177.713 133.607 177.68 133.591C177.647 133.574 177.617 133.55 177.591 133.52C177.566 133.489 177.546 133.453 177.532 133.413C177.518 133.373 177.511 133.33 177.511 133.286C177.511 133.243 177.518 133.2 177.532 133.16C177.546 133.12 177.566 133.084 177.591 133.053C177.617 133.023 177.647 132.999 177.68 132.982C177.713 132.966 177.749 132.958 177.784 132.958H182.116C182.152 132.958 182.188 132.966 182.221 132.982C182.254 132.999 182.284 133.023 182.309 133.053C182.335 133.084 182.355 133.12 182.369 133.16C182.382 133.2 182.389 133.243 182.389 133.286C182.389 133.33 182.382 133.373 182.369 133.413C182.355 133.453 182.335 133.489 182.309 133.52C182.284 133.55 182.254 133.574 182.221 133.591C182.188 133.607 182.152 133.615 182.116 133.615Z" fill="white"/>
<path d="M182.116 136.243H177.784C177.749 136.243 177.713 136.235 177.68 136.219C177.647 136.202 177.617 136.178 177.591 136.148C177.566 136.117 177.546 136.081 177.532 136.041C177.518 136.001 177.511 135.958 177.511 135.914C177.511 135.871 177.518 135.828 177.532 135.788C177.546 135.748 177.566 135.712 177.591 135.681C177.617 135.651 177.647 135.626 177.68 135.61C177.713 135.594 177.749 135.586 177.784 135.586H182.116C182.152 135.586 182.188 135.594 182.221 135.61C182.254 135.626 182.284 135.651 182.309 135.681C182.335 135.712 182.355 135.748 182.369 135.788C182.382 135.828 182.389 135.871 182.389 135.914C182.389 135.958 182.382 136.001 182.369 136.041C182.355 136.081 182.335 136.117 182.309 136.148C182.284 136.178 182.254 136.202 182.221 136.219C182.188 136.235 182.152 136.243 182.116 136.243Z" fill="white"/>
<path d="M182.116 138.87H177.785C177.749 138.87 177.713 138.862 177.68 138.846C177.647 138.829 177.617 138.805 177.591 138.775C177.566 138.744 177.546 138.708 177.532 138.668C177.518 138.628 177.511 138.585 177.511 138.541C177.511 138.498 177.518 138.455 177.532 138.415C177.546 138.375 177.566 138.339 177.591 138.308C177.617 138.277 177.647 138.253 177.68 138.237C177.713 138.221 177.749 138.212 177.785 138.213H182.116C182.152 138.212 182.188 138.221 182.221 138.237C182.254 138.253 182.284 138.277 182.31 138.308C182.335 138.339 182.355 138.375 182.369 138.415C182.383 138.455 182.39 138.498 182.39 138.541C182.39 138.585 182.383 138.628 182.369 138.668C182.355 138.708 182.335 138.744 182.31 138.775C182.284 138.805 182.254 138.829 182.221 138.846C182.188 138.862 182.152 138.87 182.116 138.87Z" fill="white"/>
<path d="M157.741 82.3664H152.595C152.311 82.3661 152.038 82.242 151.824 82.0167C151.61 81.7915 151.471 81.4803 151.431 81.1403C151.113 78.3033 151.113 75.4273 151.431 72.5904C151.471 72.2544 151.607 71.9465 151.817 71.7218C152.026 71.4971 152.295 71.3705 152.575 71.3645C154.194 70.4839 155.938 70.484 157.759 71.3644C157.929 71.3671 158.096 71.4148 158.248 71.5042C158.401 71.5936 158.536 71.7225 158.643 71.8817C158.755 72.0475 158.835 72.2413 158.878 72.4493C158.92 72.6573 158.924 72.8741 158.889 73.084C158.475 75.5799 158.475 78.1507 158.889 80.6466C158.924 80.8566 158.92 81.0734 158.878 81.2814C158.835 81.4893 158.755 81.6832 158.643 81.8489C158.534 82.011 158.396 82.1416 158.24 82.2311C158.084 82.3206 157.914 82.3668 157.741 82.3664Z" fill="#3364FF"/>
<path d="M157.202 74.6237H152.87C152.835 74.6241 152.799 74.6159 152.766 74.5995C152.733 74.5832 152.703 74.5591 152.677 74.5285C152.652 74.498 152.632 74.4617 152.618 74.4216C152.604 74.3816 152.597 74.3386 152.597 74.2953C152.597 74.2519 152.604 74.2089 152.618 74.1689C152.632 74.1288 152.652 74.0925 152.677 74.062C152.703 74.0314 152.733 74.0073 152.766 73.991C152.799 73.9746 152.835 73.9664 152.87 73.9668H157.202C157.238 73.9664 157.273 73.9746 157.307 73.991C157.34 74.0073 157.37 74.0314 157.395 74.062C157.421 74.0925 157.441 74.1288 157.454 74.1689C157.468 74.2089 157.475 74.2519 157.475 74.2953C157.475 74.3386 157.468 74.3816 157.454 74.4216C157.441 74.4617 157.421 74.498 157.395 74.5285C157.37 74.5591 157.34 74.5832 157.307 74.5995C157.273 74.6159 157.238 74.6241 157.202 74.6237Z" fill="white"/>
<path d="M157.202 77.2516H152.87C152.835 77.252 152.799 77.2438 152.766 77.2275C152.733 77.2111 152.703 77.187 152.677 77.1565C152.652 77.1259 152.632 77.0896 152.618 77.0495C152.604 77.0095 152.597 76.9666 152.597 76.9232C152.597 76.8798 152.604 76.8369 152.618 76.7968C152.632 76.7568 152.652 76.7204 152.677 76.6899C152.703 76.6594 152.733 76.6352 152.766 76.6189C152.799 76.6026 152.835 76.5944 152.87 76.5947H157.202C157.238 76.5944 157.273 76.6026 157.307 76.6189C157.34 76.6352 157.37 76.6594 157.395 76.6899C157.421 76.7204 157.441 76.7568 157.454 76.7968C157.468 76.8369 157.475 76.8798 157.475 76.9232C157.475 76.9666 157.468 77.0095 157.454 77.0495C157.441 77.0896 157.421 77.1259 157.395 77.1565C157.37 77.187 157.34 77.2111 157.307 77.2275C157.273 77.2438 157.238 77.252 157.202 77.2516Z" fill="white"/>
<path d="M157.202 79.8786H152.87C152.835 79.879 152.799 79.8708 152.766 79.8545C152.733 79.8382 152.703 79.814 152.677 79.7835C152.652 79.7529 152.632 79.7166 152.618 79.6765C152.604 79.6365 152.597 79.5935 152.597 79.5501C152.597 79.5067 152.604 79.4638 152.618 79.4237C152.632 79.3837 152.652 79.3473 152.677 79.3168C152.703 79.2863 152.733 79.2621 152.766 79.2458C152.799 79.2295 152.835 79.2213 152.87 79.2217H157.202C157.238 79.2213 157.274 79.2295 157.307 79.2458C157.34 79.2621 157.37 79.2863 157.395 79.3168C157.421 79.3473 157.441 79.3837 157.455 79.4237C157.469 79.4638 157.476 79.5067 157.476 79.5501C157.476 79.5935 157.469 79.6365 157.455 79.6765C157.441 79.7166 157.421 79.7529 157.395 79.7835C157.37 79.814 157.34 79.8382 157.307 79.8545C157.274 79.8708 157.238 79.879 157.202 79.8786Z" fill="white"/>
<path d="M67.3897 98.3889H62.2429C61.9598 98.3886 61.6863 98.2645 61.4726 98.0392C61.2589 97.814 61.1194 97.5028 61.0797 97.1627C60.7619 94.3258 60.7619 91.4498 61.0797 88.6128C61.1189 88.2769 61.2556 87.969 61.4652 87.7443C61.6748 87.5196 61.9435 87.3929 62.2232 87.387C63.8425 86.5064 65.5864 86.5065 67.4074 87.3868C67.577 87.3896 67.7441 87.4373 67.8968 87.5267C68.0496 87.6161 68.1844 87.7449 68.2917 87.9042C68.4037 88.0699 68.4838 88.2638 68.5262 88.4718C68.5687 88.6797 68.5724 88.8965 68.5371 89.1065C68.1237 91.6024 68.1237 94.1732 68.5371 96.6691C68.5724 96.879 68.5687 97.0959 68.5262 97.3038C68.4838 97.5118 68.4037 97.7057 68.2917 97.8714C68.1825 98.0335 68.0449 98.164 67.8888 98.2536C67.7328 98.3431 67.5623 98.3893 67.3897 98.3889Z" fill="#3364FF"/>
<path d="M66.8506 90.6462H62.5187C62.483 90.6465 62.4475 90.6383 62.4144 90.622C62.3813 90.6057 62.3511 90.5815 62.3258 90.551C62.3004 90.5205 62.2802 90.4841 62.2664 90.4441C62.2527 90.404 62.2456 90.3611 62.2456 90.3177C62.2456 90.2743 62.2527 90.2314 62.2664 90.1913C62.2802 90.1513 62.3004 90.115 62.3258 90.0844C62.3511 90.0539 62.3813 90.0298 62.4144 90.0134C62.4475 89.9971 62.483 89.9889 62.5187 89.9893H66.8506C66.8864 89.9889 66.9219 89.9971 66.955 90.0134C66.9881 90.0298 67.0182 90.0539 67.0436 90.0844C67.069 90.115 67.0892 90.1513 67.1029 90.1913C67.1167 90.2314 67.1238 90.2743 67.1238 90.3177C67.1238 90.3611 67.1167 90.404 67.1029 90.4441C67.0892 90.4841 67.069 90.5205 67.0436 90.551C67.0182 90.5815 66.9881 90.6057 66.955 90.622C66.9219 90.6383 66.8864 90.6465 66.8506 90.6462Z" fill="white"/>
<path d="M66.8506 93.2741H62.5187C62.483 93.2745 62.4475 93.2663 62.4144 93.2499C62.3813 93.2336 62.3511 93.2094 62.3258 93.1789C62.3004 93.1484 62.2802 93.112 62.2664 93.072C62.2527 93.032 62.2456 92.989 62.2456 92.9456C62.2456 92.9023 62.2527 92.8593 62.2664 92.8193C62.2802 92.7792 62.3004 92.7429 62.3258 92.7124C62.3511 92.6818 62.3813 92.6577 62.4144 92.6414C62.4475 92.625 62.483 92.6168 62.5187 92.6172H66.8506C66.8864 92.6168 66.9219 92.625 66.955 92.6414C66.9881 92.6577 67.0182 92.6818 67.0436 92.7124C67.069 92.7429 67.0892 92.7792 67.1029 92.8193C67.1167 92.8593 67.1238 92.9023 67.1238 92.9456C67.1238 92.989 67.1167 93.032 67.1029 93.072C67.0892 93.112 67.069 93.1484 67.0436 93.1789C67.0182 93.2094 66.9881 93.2336 66.955 93.2499C66.9219 93.2663 66.8864 93.2745 66.8506 93.2741Z" fill="white"/>
<path d="M66.8503 95.901H62.5184C62.4827 95.9014 62.4472 95.8933 62.414 95.8769C62.3809 95.8606 62.3507 95.8365 62.3253 95.8059C62.2999 95.7754 62.2797 95.7391 62.266 95.699C62.2522 95.659 62.2451 95.616 62.2451 95.5726C62.2451 95.5292 62.2522 95.4862 62.266 95.4462C62.2797 95.4061 62.2999 95.3698 62.3253 95.3393C62.3507 95.3087 62.3809 95.2846 62.414 95.2683C62.4472 95.2519 62.4827 95.2437 62.5184 95.2442H66.8503C66.8861 95.2437 66.9216 95.2519 66.9547 95.2683C66.9879 95.2846 67.018 95.3087 67.0434 95.3393C67.0688 95.3698 67.089 95.4061 67.1028 95.4462C67.1165 95.4862 67.1236 95.5292 67.1236 95.5726C67.1236 95.616 67.1165 95.659 67.1028 95.699C67.089 95.7391 67.0688 95.7754 67.0434 95.8059C67.018 95.8365 66.9879 95.8606 66.9547 95.8769C66.9216 95.8933 66.8861 95.9014 66.8503 95.901Z" fill="white"/>
<path d="M184.164 133.376C184.413 133.198 184.626 132.955 184.79 132.666C184.953 132.376 185.062 132.047 185.109 131.701C185.157 131.354 185.141 131 185.062 130.662C184.984 130.324 184.846 130.011 184.658 129.745L188.192 122.371L184.544 122.621L181.747 129.585C181.399 129.999 181.189 130.553 181.156 131.142C181.123 131.732 181.269 132.315 181.567 132.783C181.865 133.25 182.294 133.569 182.772 133.678C183.251 133.787 183.746 133.68 184.164 133.376V133.376Z" fill="#FFB6B6"/>
<path d="M185.59 127.955L182.324 124.869L188.258 110.917L186.035 93.1494C185.925 92.2712 185.976 91.3744 186.184 90.5226C186.392 89.6709 186.751 88.8852 187.238 88.2212C187.724 87.5572 188.325 87.0312 188.998 86.6807C189.671 86.3301 190.399 86.1635 191.131 86.1927C192.453 86.2473 193.703 86.9358 194.607 88.107C195.51 89.2783 195.994 90.8367 195.952 92.4404L195.403 112.671L185.59 127.955Z" fill="#CCCCCC"/>
<path d="M27.7313 124.143C27.937 123.892 28.0949 123.59 28.1938 123.257C28.2927 122.924 28.3303 122.569 28.3038 122.216C28.2774 121.864 28.1876 121.523 28.0407 121.217C27.8939 120.912 27.6935 120.649 27.4539 120.447L30.6303 101.308L27.1225 102.674L24.58 121.187C24.3275 121.697 24.2382 122.303 24.3291 122.888C24.42 123.474 24.6848 123.998 25.0732 124.363C25.4617 124.727 25.9468 124.906 26.4367 124.865C26.9266 124.825 27.3872 124.568 27.7313 124.143H27.7313Z" fill="#9E616A"/>
<path d="M32.4216 83.6491L30.2452 81.6561C30.2452 81.6561 28.3253 81.4912 27.9853 85.6914C27.6452 89.8917 26.947 98.0773 26.947 98.0773L23.6167 116.789L28.2268 118.017L31.7938 97.8232L33.9336 91.8265L32.4216 83.6491Z" fill="#CCCCCC"/>
<path d="M28.8335 114.204L41.0976 113.956L42.1197 103.789H28.8335V114.204Z" fill="#9E616A"/>
<path d="M39.8712 176.765H42.7024L44.0493 163.517L39.8706 163.517L39.8712 176.765Z" fill="#9E616A"/>
<path d="M22.1343 177.083L24.9655 177.059L26.2358 163.8L22.5536 164.825L22.1343 177.083Z" fill="#9E616A"/>
<path d="M30.9891 95.0343L30.3477 97.0574L30.4758 99.081L43.0311 104.356L42.4082 95.5011L40.9968 93.4775L30.9891 95.0343Z" fill="#FFB6B6"/>
<path d="M36.3754 76.8251C38.8519 76.8251 40.8596 74.3896 40.8596 71.3852C40.8596 68.3808 38.8519 65.9453 36.3754 65.9453C33.8988 65.9453 31.8911 68.3808 31.8911 71.3852C31.8911 74.3896 33.8988 76.8251 36.3754 76.8251Z" fill="#9E616A"/>
<path d="M39.1688 175.071L43.6444 174.747V177.073L47.8995 180.638C48.1097 180.814 48.268 181.067 48.3513 181.36C48.4346 181.653 48.4385 181.971 48.3625 182.266C48.2865 182.562 48.1345 182.821 47.9288 183.004C47.723 183.188 47.4743 183.287 47.2189 183.287H41.8905L40.9721 180.986L40.6135 183.287H38.6045L39.1688 175.071Z" fill="#2F2E41"/>
<path d="M21.1654 175.397L25.639 175.035L25.6524 177.361L29.9279 180.89C30.1391 181.064 30.2989 181.316 30.3839 181.608C30.4688 181.9 30.4746 182.218 30.4003 182.514C30.326 182.811 30.1755 183.071 29.9708 183.256C29.7662 183.441 29.518 183.542 29.2626 183.545L23.9344 183.59L23.0027 181.297L22.6574 183.601L20.6484 183.618L21.1654 175.397Z" fill="#2F2E41"/>
<path d="M21.253 166.925L23.3146 146.935L25.7674 125.858C23.9712 121.811 28.0159 109.244 28.0159 109.244L28.5868 109.277L41.5092 112.235L41.5064 112.22C44.1494 120.965 45.0251 125.285 44.8803 134.598L44.3596 168.076H44.5229C44.794 168.076 45.0539 168.206 45.2456 168.439C45.4373 168.671 45.5449 168.986 45.5449 169.315C45.5449 169.644 45.4373 169.959 45.2456 170.192C45.0539 170.425 44.794 170.555 44.5229 170.555H39.4129C39.2785 170.555 39.1454 170.524 39.0212 170.461C38.897 170.399 38.7842 170.308 38.6891 170.193C38.594 170.078 38.5185 169.941 38.4671 169.79C38.4156 169.64 38.3891 169.478 38.3891 169.315C38.3891 169.152 38.4156 168.991 38.4671 168.84C38.5185 168.69 38.594 168.553 38.6891 168.438C38.7842 168.323 38.897 168.231 39.0212 168.169C39.1454 168.107 39.2785 168.075 39.4129 168.076H39.5446L34.8542 128.214L30.8775 144.951L26.3806 166.772C28.0159 166.276 27.762 167.425 27.762 168.076C27.762 168.404 27.6543 168.72 27.4626 168.952C27.271 169.185 27.011 169.315 26.74 169.315H21.6299C21.3922 169.316 21.1619 169.215 20.9787 169.032C20.7954 168.848 20.6708 168.593 20.6261 168.31C20.5814 168.026 20.6196 167.733 20.7341 167.48C20.8485 167.228 21.032 167.031 21.253 166.925H21.253Z" fill="#2F2E41"/>
<path d="M27.0098 109.895L27.4186 104.936C27.4611 104.733 27.5552 104.553 27.6876 104.419C27.82 104.286 27.9838 104.207 28.1555 104.193C28.3258 101.831 29.0425 91.6391 29.0853 91.1946L29.087 91.1758L29.4129 82.7307C29.4247 82.424 29.5292 82.1333 29.7066 81.9142C29.8839 81.6951 30.1215 81.5629 30.3741 81.5429L32.0953 81.4064C32.1189 81.4054 32.1413 81.3934 32.1577 81.3728C32.1741 81.3522 32.1833 81.3246 32.1833 81.296C32.1833 81.0654 32.2207 80.8371 32.2935 80.624C32.3662 80.411 32.4728 80.2174 32.6072 80.0543C32.7416 79.8913 32.9012 79.7619 33.0768 79.6737C33.2524 79.5855 33.4407 79.54 33.6307 79.54H38.7267C39.0568 79.5402 39.3755 79.6865 39.6229 79.9515C39.8704 80.2165 40.0297 80.5819 40.0708 80.9792C40.073 81.0065 40.0837 81.0318 40.1007 81.0501C40.1177 81.0683 40.1397 81.078 40.1624 81.0774H40.163C40.742 81.0629 41.3061 81.3008 41.753 81.7477C42.1999 82.1947 42.4998 82.8211 42.5985 83.5135C43.2952 88.4308 44.6914 99.5914 44.0011 105.796C43.7608 107.956 44.2788 106.245 44.3697 108.052C44.3787 108.227 44.3592 108.402 44.3124 108.568C44.2656 108.733 44.1922 108.886 44.0967 109.017C44.2923 109.103 44.452 109.28 44.5411 109.508C44.6302 109.736 44.6415 109.998 44.5726 110.236L44.6621 110.209C44.6359 110.335 44.5894 110.454 44.5253 110.559C44.4612 110.663 44.3808 110.751 44.2886 110.818C44.1964 110.885 44.0943 110.929 43.9881 110.948C43.8818 110.967 43.7736 110.96 43.6695 110.928L30.3371 113.12C29.8993 112.986 26.8994 110.426 27.0098 109.895Z" fill="#CCCCCC"/>
<path d="M62.6354 89.7321C62.5519 90.0711 62.4081 90.3837 62.2142 90.648C62.0203 90.9123 61.781 91.1218 61.5132 91.2618C61.2453 91.4017 60.9554 91.4688 60.6639 91.4581C60.3723 91.4474 60.0863 91.3593 59.8258 91.2001L54.6716 96.9063L53.9873 92.5148L58.99 87.7834C59.2395 87.2704 59.6356 86.8863 60.103 86.7039C60.5704 86.5214 61.0768 86.5533 61.5262 86.7935C61.9755 87.0337 62.3366 87.4655 62.5411 88.0071C62.7455 88.5487 62.7791 89.1624 62.6354 89.7321H62.6354Z" fill="#9E616A"/>
<path d="M44.6961 85.3705C44.6961 85.3705 42.8988 80.4434 40.6289 81.4227C38.359 82.4021 39.531 87.1827 39.531 87.1827L48.0592 102.772C48.0592 102.772 60.3599 93.1998 58.8642 93.1322C57.3684 93.0646 56.921 89.7643 56.921 89.7643L50.4198 93.705L50.1998 92.3021L49.8473 92.7298L48.9375 91.8611L44.6961 85.3705Z" fill="#CCCCCC"/>
<path d="M191.714 79.9583C195.172 79.9583 197.975 76.5579 197.975 72.3634C197.975 68.1689 195.172 64.7686 191.714 64.7686C188.257 64.7686 185.454 68.1689 185.454 72.3634C185.454 76.5579 188.257 79.9583 191.714 79.9583Z" fill="#FFB6B6"/>
<path d="M211.807 83.539C211.084 84.781 210.03 85.6816 208.822 86.088C208.339 86.2625 207.84 86.3652 207.336 86.3941C207.274 85.7033 207.125 85.028 206.895 84.3918C206.918 85.069 206.841 85.7457 206.666 86.3894C205.909 86.3374 205.17 86.0971 204.494 85.6835C203.829 85.278 203.252 84.6903 202.807 83.9669C202.363 83.2436 202.063 82.4045 201.933 81.5163C201.667 79.4389 202.444 77.3991 202.725 75.3249C203.006 73.2506 202.477 70.6235 200.804 70.0784C199.529 69.6629 199.672 69.8426 198.612 70.7969C199.714 72.774 195.643 80.0192 193.977 79.3874C193.035 79.0302 192.432 77.9817 192.238 77.9817C190.928 80.7181 193.394 85.3289 190.909 86.2864L191.114 86.038C192.614 83.7998 189.479 79.0625 190.978 76.8243C191.397 76.198 191.842 75.456 191.719 74.6642C191.602 73.9113 190.617 73.513 190.328 74.1316C190.847 72.6899 190.081 70.7656 188.813 70.3954C187.686 70.0659 187.707 70.472 186.576 70.6485C186.503 70.0558 186.364 69.4776 186.166 68.9288C186.186 69.5201 186.13 70.1117 185.997 70.6813C185.598 70.6718 185.212 70.5027 184.9 70.2002C183.978 69.299 184.165 67.4059 184.988 66.3735C185.812 65.3411 187.036 64.9694 188.204 64.7288C188.543 61.861 195.066 61.5619 195.93 64.4274C196.299 62.2876 198.507 61.177 200.223 61.8409C201.939 62.5047 203.13 64.4493 203.757 66.4985C204.384 68.5462 204.559 70.75 204.946 72.8836C205.332 75.0172 205.985 77.1898 207.329 78.6439C208.673 80.0965 210.863 80.5776 212.279 79.2281C212.485 79.9411 212.55 80.703 212.468 81.452C212.385 82.201 212.159 82.9159 211.807 83.539Z" fill="#2F2E41"/>
<path d="M270.543 100.87L269.667 106.205C269.601 106.612 269.532 107.028 269.457 107.439C268.724 107.255 267.964 107.306 267.253 107.588C267.818 108.566 268.323 109.592 268.766 110.658C268.214 112.723 267.403 114.631 266.047 116.011C265.14 116.912 264.058 117.515 262.904 117.761C261.75 118.007 260.563 117.889 259.458 117.417L259.497 117.205C258.038 113.771 258.831 109.442 260.644 106.27C261.568 104.705 262.664 103.3 263.9 102.093C265.125 100.855 266.449 99.7447 267.761 98.6486C268.055 98.4028 268.404 98.2692 268.761 98.2648C269.119 98.2603 269.469 98.3853 269.768 98.6238C270.067 98.8622 270.3 99.2033 270.438 99.6034C270.576 100.003 270.613 100.444 270.543 100.87Z" fill="#E4E4E4"/>
<path d="M259.77 130.253C259.401 126.993 259.022 123.691 259.28 120.396C259.51 117.47 260.246 114.612 261.745 112.268C262.54 111.027 263.508 109.963 264.604 109.125C264.89 108.906 265.153 109.456 264.869 109.673C262.971 111.128 261.504 113.276 260.677 115.808C259.765 118.624 259.618 121.693 259.777 124.684C259.872 126.492 260.074 128.289 260.277 130.084C260.293 130.165 260.283 130.251 260.249 130.324C260.215 130.396 260.16 130.451 260.094 130.475C260.027 130.497 259.955 130.486 259.895 130.444C259.834 130.403 259.79 130.334 259.771 130.253L259.77 130.253Z" fill="#F2F2F2"/>
<path d="M31.0976 68.0549C30.4098 68.4553 29.64 67.8529 29.0462 67.2561L29.2586 67.4786C28.2092 68.7172 27.7186 70.4992 27.4788 72.2533C27.2389 74.0056 27.2121 75.7977 26.91 77.5376C26.6076 79.2756 25.9803 81.0219 24.8087 82.0864C23.2391 83.5122 21.0743 83.4207 19.1481 82.9836C19.1224 82.9773 19.0985 82.9725 19.0729 82.9661C19.5911 81.1508 19.8018 79.2272 19.6923 77.3106C19.1759 79.2312 18.297 80.9789 17.1254 82.4146C15.8483 81.9882 14.6017 81.4372 13.3979 80.7669C12.619 80.332 11.7803 79.7373 11.5642 78.7303C11.3474 77.731 11.8507 76.6828 12.5237 76.0518C13.1966 75.4207 14.0225 75.0915 14.7891 74.642C15.5545 74.1945 16.3119 73.5566 16.6184 72.5935C17.3252 70.3781 15.3117 67.8359 16.0964 65.6581C16.4833 64.5872 17.4312 64.0047 18.322 63.5556C19.682 62.8718 21.0786 62.3004 22.5021 61.8451C23.7518 61.4452 25.0566 61.1345 26.3297 61.3966C27.6027 61.6587 28.8499 62.5981 29.3081 64.0647C30.0726 64.3782 30.8842 64.7314 31.3749 65.5121C31.8653 66.2909 31.8257 67.6316 31.0976 68.0549Z" fill="#2F2E41"/>
<path d="M37.217 65.4872C35.2496 63.603 33.6588 63.9246 32.4316 65.0953C32.2253 64.8168 31.3474 65.5828 31.0501 65.4727L29.9749 67.9213C29.4217 69.1057 29.1947 70.3147 29.2841 70.9952C28.2664 74.4574 30.6798 76.7953 33.5338 78.0299C34.6726 78.5259 35.9152 78.5478 37.0653 78.0919L37.1004 77.502L37.3165 77.9855C37.3165 77.9855 39.9257 84.5027 40.5422 84.7954C40.1681 83.6181 39.1814 78.0228 38.906 76.8565C38.5283 75.2696 38.7863 72.7485 39.0083 71.2028C39.1466 70.2498 39.1539 69.2756 39.0297 68.3198L39.0242 68.278L39.6346 69.773L41.0043 68.7281C40.4809 66.8785 40.4704 64.6658 37.217 65.4872Z" fill="#2F2E41"/>
</svg>
