<svg width="86" height="73" viewBox="0 0 86 73" fill="none" xmlns="http://www.w3.org/2000/svg">
<path d="M3.90002 2.90054L1.00002 5.80054V33.7005C1.00002 74.7005 -1.99998 72.0005 43 72.0005C86.6 72.0005 85 73.0005 85 43.7005V25.8005L82.1 22.9005C80.1 21.0005 78.1 20.0005 76.1 20.0005H73V12.9005C73 6.40054 72.8 5.60054 70.1 2.90054L67.2 0.000541687H37H6.80002L3.90002 2.90054ZM67 33.0005L67.5 59.5005H70H72.5L72.8 42.7005L73 25.9005L75.8 26.2005L78.5 26.5005L78.8 43.9005C79 60.7005 79 61.4005 76.8 63.7005L74.7 66.0005H43.1C12.2 66.0005 11.6 66.0005 9.30002 63.8005C7.00002 61.7005 7.00002 61.6005 7.00002 34.5005C7.00002 19.6005 7.30002 7.00054 7.70002 6.70054C8.10002 6.30054 21.4 6.10054 37.4 6.20054L66.5 6.50054L67 33.0005Z" fill="#5C5C5C"/>
<path d="M13.4001 19.5006C13.0001 20.3006 13.0001 21.7006 13.4001 22.5006C13.9001 23.8006 17.2001 24.0006 37.2001 23.8006L60.5001 23.5006V21.0006V18.5006L37.2001 18.2006C17.2001 18.0006 13.9001 18.2006 13.4001 19.5006Z" fill="#5C5C5C"/>
<path d="M13.4 35.3C13.2 36.1 13 40.5 13.2 45.1L13.5 53.5H23H32.5V44V34.5L23.2 34.2C16.1 34 13.8 34.2 13.4 35.3ZM27 44V48H23H19V44V40H23H27V44Z" fill="#5C5C5C"/>
<path d="M39.3998 35.5006C39.0998 36.3006 39.0998 37.7006 39.3998 38.5006C39.8998 39.8006 41.6998 40.0006 50.1998 39.8006C60.3998 39.5006 60.4998 39.5006 60.4998 37.0006C60.4998 34.5006 60.3998 34.5006 50.1998 34.2006C41.6998 34.0006 39.8998 34.2006 39.3998 35.5006Z" fill="#5C5C5C"/>
<path d="M39.3998 49.5006C39.0998 50.3006 39.0998 51.7006 39.3998 52.5006C39.8998 53.8006 41.6998 54.0006 50.1998 53.8006C60.3998 53.5006 60.4998 53.5006 60.4998 51.0006C60.4998 48.5006 60.3998 48.5006 50.1998 48.2006C41.6998 48.0006 39.8998 48.2006 39.3998 49.5006Z" fill="#5C5C5C"/>
</svg>
