<svg width="80" height="78" viewBox="0 0 80 78" fill="none" xmlns="http://www.w3.org/2000/svg">
<path d="M7 1.8C0.5 5 0 7.4 0 34.6C0 56.7 0.2 58.8 1.8 60.3C4.5 62.7 6 62.4 11.5 58.5L16.4 55.1L18.2 58.1C21.1 62.9 25.2 64 40.5 64H54L63.6 71C68.9 74.9 74 78 75 78C75.9 78 77.4 77.2 78.3 76.2C79.8 74.6 80 71.3 80 50.6C80 24.9 79.5 21.7 74.6 18.5C73.2 17.6 70.3 16.6 68.2 16.3C64.5 15.8 64.2 15.5 63.7 11.8C63.4 9.7 62.4 6.8 61.5 5.4C58.4 0.599998 54.9 0 31.8 0C13.5 0 10 0.299995 7 1.8ZM55.7 8.2C57.9 10.2 58 11 58 23.9C58 42.5 58.6 42 38.6 42.1H23.5L15 48.5L6.5 54.8L6.2 32.7C5.9 3.5 3.4 6 31.9 6C52.6 6 53.5 6.1 55.7 8.2ZM71.7 24.2C74 26.3 74 26.6 74 48.7V71L65 64.5L56 58H41.3C27.6 58 26.5 57.9 24.3 55.8C21.6 53.2 21.5 52.3 23.7 49.8C25.1 48.2 27 48 39.4 48C50.8 48 54.2 47.7 57 46.2C62.1 43.7 64 39.1 64 29.7C64 22 64 22 66.7 22C68.2 22 70.4 23 71.7 24.2Z" fill="#5C5C5C"/>
</svg>
