<svg width="70" height="70" viewBox="0 0 70 70" fill="none" xmlns="http://www.w3.org/2000/svg">
<path d="M2.8194 2.82146C0.291663 5.34919 0 6.32139 0 11.6685C0 17.0156 0.291663 17.9878 2.8194 20.5156C5.63881 23.335 5.83325 23.335 16.5275 23.335C27.2218 23.335 27.4163 23.335 30.2357 20.5156C32.7634 17.9878 33.0551 17.0156 33.0551 11.6685C33.0551 6.32139 32.7634 5.34919 30.2357 2.82146C27.4163 0.00206709 27.2218 0.00206709 16.5275 0.00206709C5.83325 0.00206709 5.63881 0.00206709 2.8194 2.82146ZM26.7357 11.6685V17.0156H16.5275H6.31936L6.02769 12.7379C5.54159 5.73807 5.54159 5.73807 16.722 6.02973L26.7357 6.32139V11.6685Z" fill="#5C5C5C"/>
<path d="M39.7642 2.81976L36.9448 5.63915V21.3889V37.1386L39.7642 39.958C42.5836 42.7773 42.7781 42.7773 53.4724 42.7773C64.1667 42.7773 64.3611 42.7773 67.1805 39.958L69.9999 37.1386V21.3889V5.63915L67.1805 2.81976C64.3611 0.000365138 64.1667 0.000365138 53.4724 0.000365138C42.7781 0.000365138 42.5836 0.000365138 39.7642 2.81976ZM63.6806 21.3889V36.458H53.4724H43.2642L42.9725 22.3611C42.8753 14.6806 42.9725 7.778 43.2642 7.09745C43.5558 6.02803 46.0836 5.83359 53.6668 6.02803L63.6806 6.31969V21.3889Z" fill="#5C5C5C"/>
<path d="M2.8194 30.0424L0 32.8618V48.6115V64.3612L2.8194 67.1806C5.63881 70 5.83325 70 16.5275 70C27.2218 70 27.4163 70 30.2357 67.1806L33.0551 64.3612V48.6115V32.8618L30.2357 30.0424C27.4163 27.223 27.2218 27.223 16.5275 27.223C5.83325 27.223 5.63881 27.223 2.8194 30.0424ZM26.7357 48.6115V63.6807H16.5275H6.31936L6.02769 49.5837C5.93047 41.9033 6.02769 35.0007 6.31936 34.3201C6.61102 33.2507 9.13876 33.0562 16.722 33.2507L26.7357 33.5423V48.6115Z" fill="#5C5C5C"/>
<path d="M39.7642 49.4865C37.2365 52.0142 36.9448 52.9864 36.9448 58.3336C36.9448 63.6807 37.2365 64.6529 39.7642 67.1806C42.5836 70 42.7781 70 53.4724 70C64.1667 70 64.3611 70 67.1805 67.1806C69.7083 64.6529 69.9999 63.6807 69.9999 58.3336C69.9999 52.9864 69.7083 52.0142 67.1805 49.4865C64.3611 46.6671 64.1667 46.6671 53.4724 46.6671C42.7781 46.6671 42.5836 46.6671 39.7642 49.4865ZM63.6806 58.3336V63.6807H53.4724H43.2642L42.9725 59.403C42.4864 52.4031 42.4864 52.4031 53.6668 52.6948L63.6806 52.9864V58.3336Z" fill="#5C5C5C"/>
</svg>
