<svg width="76" height="74" viewBox="0 0 76 74" fill="none" xmlns="http://www.w3.org/2000/svg">
<path d="M5.8 2.6004C0.3 5.5004 0 7.4004 0 37.0004C0 66.8004 0.3 68.6004 6 71.5004C10.3 73.7004 65.7 73.7004 70 71.5004C75.7 68.6004 76 66.8004 76 37.0004C76 7.20039 75.7 5.4004 70 2.5004C65.7 0.300392 9.9 0.300392 5.8 2.6004ZM70 42.4004C70 60.6004 69.8 64.1004 68.4 65.4004C67.1 66.8004 62.9 67.0004 38 67.0004C13.1 67.0004 8.9 66.8004 7.6 65.4004C6.2 64.1004 6 60.6004 6 42.4004V21.0004H38H70V42.4004Z" fill="#5C5C5C"/>
<path d="M38.7002 27.6996C37.5002 29.6996 31.9002 58.3996 32.4002 59.6996C32.8002 60.4996 33.9002 60.9996 35.2002 60.7996C37.3002 60.4996 37.8002 59.0996 40.8002 45.1996C42.7002 36.6996 43.9002 29.1996 43.6002 28.3996C43.0002 26.8996 39.4002 26.3996 38.7002 27.6996Z" fill="#5C5C5C"/>
<path d="M18.7 37.7011C16.1 40.4011 14 43.2011 14 44.1011C14 46.5011 23.5 55.2011 25.6 54.8011C28.7 54.2011 28.4 51.0011 24.9 47.4011L21.6 44.0011L24.9 40.6011C28.5 36.9011 28.7 33.7011 25.5 33.2011C24.2 33.0011 21.8 34.6011 18.7 37.7011Z" fill="#5C5C5C"/>
<path d="M48.7001 33.7001C47.2001 35.1001 48.1001 37.5001 51.2001 40.7001L54.4001 44.0001L51.1001 47.4001C47.6001 51.0001 47.3001 54.2001 50.4001 54.8001C52.6001 55.3001 62.0001 46.4001 62.0001 44.0001C62.0001 43.1001 59.8001 40.3001 57.2001 37.7001C52.7001 33.3001 50.2001 32.1001 48.7001 33.7001Z" fill="#5C5C5C"/>
</svg>
