<svg width="80" height="80" viewBox="0 0 80 80" fill="none" xmlns="http://www.w3.org/2000/svg">
<path d="M30.6 1.00001C24.3 2.60001 15.3 8.00001 10.9 12.7C8.7 15.1 5.4 20.1 3.7 23.8C0.8 29.9 0.5 31.4 0.5 40.1C0.5 49.1 0.7 50 4.2 57.2C8.7 66.3 14.5 71.9 23.8 76.3C29.9 79.2 31.4 79.5 40 79.5C48.6 79.5 50.1 79.2 56.2 76.3C65.5 71.9 71.3 66.3 75.8 57.2C79.3 50 79.5 49.1 79.5 40C79.5 30.9 79.3 30 75.8 22.8C69 9.2 57 1.10001 42.2 0.400002C38 0.200005 32.8 0.500008 30.6 1.00001ZM54.1 9.2C61 12.4 67.6 19 70.9 26C74.6 33.9 74.6 46.1 70.9 54C67.6 61 61 67.6 54 70.9C46.1 74.6 33.9 74.6 26 70.9C19 67.6 12.4 61 9.1 54C5.4 46.1 5.4 33.9 9.1 26C11.9 20.1 18.5 12.8 23.4 10.3C33 5.3 44.7 4.9 54.1 9.2Z" fill="#5C5C5C"/>
<path d="M35.5 18.9C31.4 20.7 28.7 24.8 28.6 29.2C28.5 33.1 28.7 33.5 31 33.5C33 33.5 33.5 32.9 34.1 30C35.3 24.2 40.2 22.2 44 26C47.3 29.3 46.5 32.7 41.4 38.2C37.7 42.2 36.9 43.6 37.2 46.3C37.4 48.9 37.9 49.5 39.9 49.5C41.7 49.5 42.5 48.8 43.1 46.8C43.5 45.3 45.4 42.6 47.3 40.6C53.1 34.8 53.5 26.7 48.1 21.6C45 18.6 39 17.4 35.5 18.9Z" fill="#5C5C5C"/>
<path d="M37.0001 57.4993C35.5001 59.2993 36.0001 61.9993 38.3001 63.3993C41.7001 65.5993 45.6001 60.6993 43.0001 57.4993C41.4001 55.5993 38.6001 55.5993 37.0001 57.4993Z" fill="#5C5C5C"/>
</svg>
