<svg width="72" height="74" viewBox="0 0 72 74" fill="none" xmlns="http://www.w3.org/2000/svg">
<path d="M5.8 2.60039C0.3 5.50039 0 7.40039 0 37.0004C0 66.8004 0.3 68.6004 6 71.5004C10.2 73.7004 47.8 73.7004 52 71.5004C57.8 68.5004 60.1 59.5004 55.1 59.5004C53.2 59.5004 52.5 60.2004 51.9 62.4004C51.4 64.0004 50.5 65.7004 49.8 66.1004C49.1 66.6004 39.6 67.0004 28.8 67.0004C12.3 67.0004 8.9 66.8004 7.6 65.4004C5.2 63.1004 5.2 10.9004 7.6 8.60039C8.9 7.20039 12.3 7.00039 28.8 7.00039C39.6 7.00039 49.1 7.40039 49.8 7.90039C50.5 8.30039 51.4 10.0004 51.9 11.6004C52.5 13.8004 53.2 14.5004 55.1 14.5004C60.1 14.5004 57.8 5.50039 52 2.50039C47.8 0.300392 9.8 0.400391 5.8 2.60039Z" fill="#5C5C5C"/>
<path d="M52.7 20.7001C51.1 22.3001 52.3 24.9001 56.5 29.0001L61.1 33.5001L38.8 34.0001L16.5 34.5001V37.0001V39.5001L38.9 39.8001L61.4 40.0001L56.6 44.9001C51.6 49.9001 50.8 53.2001 54.4 53.8001C56.6 54.3001 72 39.5001 72 37.0001C72 35.0001 56.9 20.0001 54.9 20.0001C54 20.0001 53 20.3001 52.7 20.7001Z" fill="#5C5C5C"/>
</svg>
