<svg width="76" height="82" viewBox="0 0 76 82" fill="none" xmlns="http://www.w3.org/2000/svg">
<path d="M24.4761 1.44478C19.0761 4.04478 16.0761 7.14478 13.7761 12.4448C9.67613 21.5448 13.7761 32.4448 22.8761 37.3448C32.8761 42.5448 44.8761 38.6448 59.4761 25.3448C65.4761 19.9448 65.2761 19.0448 56.4761 11.6448C44.4761 1.44478 32.4761 -2.35522 24.4761 1.44478ZM37.9761 7.14478C42.1761 8.64478 54.1761 16.6448 55.5761 18.8448C56.6761 20.5448 48.9761 26.9448 41.6761 30.6448C34.6761 34.1448 29.7761 34.4448 25.1761 31.6448C15.4761 25.7448 15.9761 12.5448 26.0761 7.44478C30.2761 5.24478 32.4761 5.24478 37.9761 7.14478Z" fill="#5C5C5C"/>
<path d="M60.976 40.2461L57.876 42.9461L64.176 49.3461L70.476 55.7461L73.276 52.6461C76.976 48.5461 76.876 44.3461 73.076 40.5461C69.276 36.8461 65.176 36.7461 60.976 40.2461Z" fill="#5C5C5C"/>
<path d="M5.37603 48.6456C-1.92397 51.5456 -1.72397 63.9456 5.57603 70.8456C11.376 76.2456 27.976 81.8456 27.976 78.3456C27.976 77.4456 28.176 76.1456 28.576 75.3456C28.976 74.2456 27.976 73.7456 24.776 73.2456C14.576 71.6456 5.97603 65.0456 5.97603 58.5456C5.97603 53.9456 7.17603 53.6456 24.976 53.6456H41.576L44.476 50.6456L47.376 47.6456L27.376 47.7456C16.476 47.7456 6.47603 48.1456 5.37603 48.6456Z" fill="#5C5C5C"/>
<path d="M44.3758 56.8453C35.8758 65.5453 35.1758 66.6453 33.4758 72.9453C31.0758 81.9453 31.6758 82.5453 40.6758 80.1453C46.9758 78.4453 48.0758 77.7453 56.7758 69.2453L66.0758 60.1453L59.6758 53.8453L53.3758 47.6453L44.3758 56.8453Z" fill="#5C5C5C"/>
</svg>
